<svg width="1293" height="622" viewBox="0 0 1293 622" fill="none" xmlns="http://www.w3.org/2000/svg">
<path d="M60 13.1209C60.8561 10.7426 62.7426 8.85607 65.1209 8C62.7426 7.14393 60.8561 5.25745 60 2.87912C59.1439 5.25744 57.2574 7.14393 54.8791 8C57.2574 8.85607 59.1439 10.7426 60 13.1209Z" stroke="#CFBEFF"/>
<path d="M16 614C11.5817 614 8 617.582 8 622C8 617.582 4.41828 614 3.49691e-07 614C4.41828 614 8 610.418 8 606C8 610.418 11.5817 614 16 614Z" fill="#CFBEFF"/>
<path d="M593 380C588.582 380 585 383.582 585 388C585 383.582 581.418 380 577 380C581.418 380 585 376.418 585 372C585 376.418 588.582 380 593 380Z" fill="#CFBEFF"/>
<path d="M940 142.121C940.856 139.743 942.743 137.856 945.121 137C942.743 136.144 940.856 134.257 940 131.879C939.144 134.257 937.257 136.144 934.879 137C937.257 137.856 939.144 139.743 940 142.121Z" stroke="#CFBEFF"/>
<path d="M1246 476C1241.58 476 1238 479.582 1238 484C1238 479.582 1234.42 476 1230 476C1234.42 476 1238 472.418 1238 468C1238 472.418 1241.58 476 1246 476Z" fill="#CFBEFF"/>
<path d="M1033 396C1028.58 396 1025 399.582 1025 404C1025 399.582 1021.42 396 1017 396C1021.42 396 1025 392.418 1025 388C1025 392.418 1028.58 396 1033 396Z" fill="#CFBEFF"/>
<path d="M839 497.121C839.856 494.743 841.743 492.856 844.121 492C841.743 491.144 839.856 489.257 839 486.879C838.144 489.257 836.257 491.144 833.879 492C836.257 492.856 838.144 494.743 839 497.121Z" stroke="#CFBEFF"/>
<path d="M1148 445C1143.58 445 1140 448.582 1140 453C1140 448.582 1136.42 445 1132 445C1136.42 445 1140 441.418 1140 437C1140 441.418 1143.58 445 1148 445Z" fill="#CFBEFF"/>
<path d="M1293 256C1288.58 256 1285 259.582 1285 264C1285 259.582 1281.42 256 1277 256C1281.42 256 1285 252.418 1285 248C1285 252.418 1288.58 256 1293 256Z" fill="#CFBEFF"/>
<path d="M1193 505.121C1193.86 502.743 1195.74 500.856 1198.12 500C1195.74 499.144 1193.86 497.257 1193 494.879C1192.14 497.257 1190.26 499.144 1187.88 500C1190.26 500.856 1192.14 502.743 1193 505.121Z" stroke="#CFBEFF"/>
<path d="M1045 517C1040.58 517 1037 520.582 1037 525C1037 520.582 1033.42 517 1029 517C1033.42 517 1037 513.418 1037 509C1037 513.418 1040.58 517 1045 517Z" fill="#CFBEFF"/>
</svg>
