<?xml version="1.0" encoding="UTF-8"?> <svg xmlns="http://www.w3.org/2000/svg" xmlns:xlink="http://www.w3.org/1999/xlink" version="1.1" id="Layer_1" x="0px" y="0px" viewBox="0 0 3208.45 664.12" style="enable-background:new 0 0 3208.45 664.12;" xml:space="preserve"> <style type="text/css"> .st0{fill:#FFFFFF;} </style> <g> <path class="st0" d="M234.59,41.38h314.83c6.68,0,12.74,3.91,15.5,9.99l111.39,246c5.1,11.26-3.14,24.03-15.5,24.03H346.74 c-6.66,0-12.71-3.89-15.48-9.95l-112.15-246C213.98,54.19,222.21,41.38,234.59,41.38z M234.71,622.74h305.45 c6.63,0,12.65-3.85,15.44-9.86l112.51-242.91c5.22-11.27-3.01-24.15-15.43-24.16l-305.95-0.12c-6.64,0-12.68,3.86-15.46,9.89 L219.26,598.6C214.07,609.88,222.3,622.74,234.71,622.74z M169.76,90.36L78.81,324.21c-1.57,4.03-1.54,8.51,0.07,12.52 l94.52,234.73c5.58,13.87,25.06,14.3,31.26,0.7l104.87-230.03c2.04-4.48,2.04-9.62,0.01-14.1L201.1,89.49 C194.87,75.78,175.22,76.33,169.76,90.36z"></path> <g> <g> <g> <path class="st0" d="M1104.42,435.19c0,50.8-40.95,96.4-140.97,96.4H811.07v-3.1c35.24,0,37.32-25.92,37.32-64.27V221.66 c0-38.35-2.07-64.26-37.32-64.26v-3.11h145.12c89.66,0,128.53,36.8,128.53,88.11c0,57.01-45.61,83.44-89.14,90.18v1.04 C1049.48,337.76,1104.42,371.97,1104.42,435.19z M906.43,181.24v149.78h38.35c57.53,0,79.82-36.28,79.82-80.33 c0-52.86-26.43-88.11-81.89-88.11h-16.59C913.69,162.58,906.43,168.8,906.43,181.24z M1041.19,432.09 c0-54.94-34.73-92.77-94.33-92.77h-40.43v150.82c0,10.89,0,33.17,41.98,33.17C1005.94,523.31,1041.19,489.1,1041.19,432.09z"></path> <path class="st0" d="M1141.72,396.84c0-86.03,53.9-143.05,128.53-143.05c75.67,0,127.5,53.9,127.5,140.97 c0,86.03-53.9,143.05-128.53,143.05C1193.55,537.82,1141.72,483.92,1141.72,396.84z M1339.7,395.81 c0-73.6-22.8-134.76-70.49-134.76c-47.68,0-69.45,58.05-69.45,134.76c0,73.6,22.8,134.75,70.49,134.75 C1317.93,530.56,1339.7,472.51,1339.7,395.81z"></path> <path class="st0" d="M1601.94,257.95l-12.44,53.9h-3.11c-12.44-10.37-29.02-16.59-41.46-16.59c-10.37,0-21.77,4.67-35.24,21.77 v160.66c0,33.17,1.55,50.8,22.8,50.8v3.1h-99.51v-3.1c21.25,0,22.8-17.62,22.8-50.8V329.47c0-33.17-8.81-42.5-26.43-48.72v-3.11 l78.26-22.81h2.07v55.46c21.77-32.65,44.05-56.49,71.52-56.49C1587.94,253.8,1594.68,254.83,1601.94,257.95z"></path> <path class="st0" d="M1876.63,517.08v3.11l-67.9,17.62h-2.08l-9.84-47.69c-19.18,26.43-45.61,47.69-81.37,47.69 c-59.08,0-102.62-54.94-102.62-135.79c0-89.67,54.94-148.23,130.09-148.23c20.21,0,38.35,5.18,53.38,12.96v-69.97 c0-33.17-8.81-42.5-26.43-48.72v-3.11l78.26-18.66h2.07v336.88C1850.19,496.36,1859,510.87,1876.63,517.08z M1796.29,482.88 V340.87c0-46.65-19.17-79.82-55.45-79.82c-48.2,0-69.97,59.6-69.97,124.39c0,68.93,21.77,125.42,70.49,125.42 C1763.64,510.87,1781.78,498.43,1796.29,482.88z"></path> <path class="st0" d="M2128.49,467.85c-19.18,33.69-51.31,69.97-107.29,69.97c-72.55,0-114.02-61.68-114.02-137.86 c0-83.96,54.94-146.16,125.94-146.16c57.53,0,97.95,39.91,94.84,105.73h-164.29c-0.52,5.18-0.52,10.88-0.52,16.07 c0,76.19,26.43,132.16,83.96,132.16c33.69,0,61.68-18.14,78.26-41.98L2128.49,467.85z M1964.71,351.24h110.91 c4.15-54.94-8.29-90.18-45.09-90.18C1991.67,261.05,1969.9,303.03,1964.71,351.24z"></path> <path class="st0" d="M2328.54,257.95l-12.44,53.9h-3.11c-12.44-10.37-29.03-16.59-41.46-16.59c-10.37,0-21.77,4.67-35.25,21.77 v160.66c0,33.17,1.56,50.8,22.81,50.8v3.1h-99.51v-3.1c21.25,0,22.8-17.62,22.8-50.8V329.47c0-33.17-8.81-42.5-26.43-48.72 v-3.11l78.26-22.81h2.07v55.46c21.77-32.65,44.05-56.49,71.52-56.49C2314.55,253.8,2321.28,254.83,2328.54,257.95z"></path> <path class="st0" d="M2350.29,528.49c21.25,0,22.8-17.62,22.8-50.8v-280.9c0-33.17-8.81-42.5-26.43-48.72v-3.11l78.26-18.66 h2.07v351.39c0,33.17,1.56,50.8,22.81,50.8v3.1h-99.51V528.49z"></path> <path class="st0" d="M2705.31,467.85c-19.17,33.69-51.31,69.97-107.29,69.97c-72.56,0-114.02-61.68-114.02-137.86 c0-83.96,54.94-146.16,125.95-146.16c57.53,0,97.95,39.91,94.84,105.73H2540.5c-0.52,5.18-0.52,10.88-0.52,16.07 c0,76.19,26.43,132.16,83.96,132.16c33.69,0,61.68-18.14,78.26-41.98L2705.31,467.85z M2541.53,351.24h110.91 c4.15-54.94-8.29-90.18-45.09-90.18C2568.48,261.05,2546.72,303.03,2541.53,351.24z"></path> <path class="st0" d="M2741.58,522.27l-4.15-68.41h3.11c20.22,44.57,43.54,76.71,85.52,76.71c29.02,0,55.46-15.03,55.46-48.21 c0-30.05-21.77-40.94-60.12-61.68l-20.22-10.88c-25.39-13.48-57.01-31.62-57.01-77.23c0-49.24,38.87-78.78,89.66-78.78 c20.74,0,50.79,4.66,71.01,14.51v57.01h-3.11c-14.51-38.35-40.43-64.27-74.12-64.27c-28.5,0-47.68,18.14-47.68,44.05 c0,29.03,23.32,42.5,46.65,54.94l19.7,10.36c35.25,18.66,71,35.25,71,83.45c0,51.31-40.43,83.96-99.51,83.96 C2791.33,537.82,2760.75,531.59,2741.58,522.27z"></path> <path class="st0" d="M2955.1,522.27l-4.14-68.41h3.11c20.22,44.57,43.54,76.71,85.52,76.71c29.02,0,55.46-15.03,55.46-48.21 c0-30.05-21.77-40.94-60.12-61.68l-20.22-10.88c-25.39-13.48-57.01-31.62-57.01-77.23c0-49.24,38.87-78.78,89.66-78.78 c20.74,0,50.79,4.66,71.01,14.51v57.01h-3.11c-14.51-38.35-40.43-64.27-74.12-64.27c-28.5,0-47.68,18.14-47.68,44.05 c0,29.03,23.32,42.5,46.65,54.94l19.69,10.36c35.25,18.66,71,35.25,71,83.45c0,51.31-40.43,83.96-99.51,83.96 C3004.86,537.82,2974.28,531.59,2955.1,522.27z"></path> </g> </g> </g> </g> </svg> 