<svg width="190" height="35" viewBox="0 0 190 35" fill="none" xmlns="http://www.w3.org/2000/svg">
<path fill-rule="evenodd" clip-rule="evenodd" d="M0.860048 6.12953C0.544791 6.13189 0.267986 5.94852 0.187249 5.68455C0.106513 5.42058 0.2415 5.14247 0.516174 5.00859L10.2024 0.208556C10.3643 0.128893 10.551 0.108152 10.7278 0.150105C10.9047 0.192057 11.0555 0.293404 11.146 0.431517C11.1902 0.495516 11.2195 0.570531 11.2311 0.649942C11.2428 0.729357 11.2367 0.810729 11.2131 0.886868C11.1649 1.04054 11.0478 1.17111 10.8885 1.24983L1.20265 6.05034C1.09482 6.10322 0.978046 6.1302 0.860048 6.12953Z" fill="white"/>
<path fill-rule="evenodd" clip-rule="evenodd" d="M20.2317 6.12885C20.1113 6.12932 19.993 6.10198 19.8887 6.04966L10.2025 1.24962C10.0431 1.1709 9.92607 1.04033 9.8778 0.886656C9.82953 0.732987 9.85388 0.56895 9.94487 0.431308C10.0359 0.293666 10.1862 0.191377 10.3631 0.149895C10.5399 0.108414 10.7262 0.128683 10.8885 0.208346L20.5748 5.00838C20.8494 5.14226 20.9849 5.42037 20.9037 5.68387C20.8225 5.94737 20.5469 6.13121 20.2317 6.12885Z" fill="white"/>
<path fill-rule="evenodd" clip-rule="evenodd" d="M20.2273 6.12953C19.912 6.13189 19.6351 5.94852 19.5544 5.68455C19.4737 5.42058 19.6087 5.14247 19.8833 5.00859L29.5697 0.208556C29.7315 0.128893 29.9183 0.108152 30.095 0.150105C30.2719 0.192057 30.4227 0.293404 30.5132 0.431517C30.6039 0.569631 30.6286 0.73367 30.5803 0.886868C30.5321 1.04007 30.415 1.17111 30.2556 1.24983L20.5699 6.05081C20.4621 6.10369 20.3453 6.1302 20.2273 6.12953Z" fill="white"/>
<path fill-rule="evenodd" clip-rule="evenodd" d="M39.6054 6.12885C39.485 6.12932 39.3667 6.10198 39.2625 6.04966L29.5762 1.24962C29.4168 1.1709 29.2998 1.04033 29.2515 0.886656C29.2033 0.732987 29.2276 0.56895 29.3187 0.431308C29.4096 0.293666 29.56 0.191377 29.7368 0.149895C29.9137 0.108414 30.1 0.128683 30.2622 0.208346L39.9485 5.00838C40.2232 5.14225 40.3586 5.42037 40.2774 5.68387C40.1963 5.94737 39.9208 6.13121 39.6054 6.12885ZM10.5468 10.3288C10.44 10.3288 10.3349 10.3076 10.2375 10.2657L0.551663 6.06568C0.223595 5.91107 0.0958698 5.55895 0.262469 5.26953C0.429068 4.9801 0.830612 4.85707 1.17022 4.99188L10.8565 9.19186C11.1427 9.31678 11.2926 9.59583 11.2187 9.8664C11.1448 10.137 10.8671 10.3274 10.5468 10.3288Z" fill="white"/>
<path fill-rule="evenodd" clip-rule="evenodd" d="M0.860048 6.12953C0.544791 6.13189 0.267986 5.94852 0.187249 5.68455C0.106513 5.42058 0.2415 5.14247 0.516174 5.00859L10.2024 0.208556C10.3643 0.128893 10.551 0.108152 10.7278 0.150105C10.9047 0.192057 11.0555 0.293404 11.146 0.431517C11.1902 0.495516 11.2195 0.570531 11.2311 0.649942C11.2428 0.729357 11.2367 0.810729 11.2131 0.886868C11.1649 1.04054 11.0478 1.17111 10.8885 1.24983L1.20265 6.05034C1.09482 6.10322 0.978046 6.1302 0.860048 6.12953Z" fill="white"/>
<path fill-rule="evenodd" clip-rule="evenodd" d="M20.2317 6.12885C20.1113 6.12932 19.993 6.10198 19.8887 6.04966L10.2025 1.24962C10.0431 1.1709 9.92607 1.04033 9.8778 0.886656C9.82953 0.732987 9.85388 0.56895 9.94487 0.431308C10.0359 0.293666 10.1862 0.191377 10.3631 0.149895C10.5399 0.108414 10.7262 0.128683 10.8885 0.208346L20.5748 5.00838C20.8494 5.14226 20.9849 5.42037 20.9037 5.68387C20.8225 5.94737 20.5469 6.13121 20.2317 6.12885Z" fill="white"/>
<path fill-rule="evenodd" clip-rule="evenodd" d="M20.2273 6.12953C19.912 6.13189 19.6351 5.94852 19.5544 5.68455C19.4737 5.42058 19.6087 5.14247 19.8833 5.00859L29.5697 0.208556C29.7315 0.128893 29.9183 0.108152 30.095 0.150105C30.2719 0.192057 30.4227 0.293404 30.5132 0.431517C30.6039 0.569631 30.6286 0.73367 30.5803 0.886868C30.5321 1.04007 30.415 1.17111 30.2556 1.24983L20.5699 6.05081C20.4621 6.10369 20.3453 6.1302 20.2273 6.12953Z" fill="white"/>
<path fill-rule="evenodd" clip-rule="evenodd" d="M39.6054 6.12885C39.485 6.12932 39.3667 6.10198 39.2625 6.04966L29.5762 1.24962C29.4168 1.1709 29.2998 1.04033 29.2515 0.886656C29.2033 0.732987 29.2276 0.56895 29.3187 0.431308C29.4096 0.293666 29.56 0.191377 29.7368 0.149895C29.9137 0.108414 30.1 0.128683 30.2622 0.208346L39.9485 5.00838C40.2232 5.14225 40.3586 5.42037 40.2774 5.68387C40.1963 5.94737 39.9208 6.13121 39.6054 6.12885ZM10.5468 10.3288C10.44 10.3288 10.3349 10.3076 10.2375 10.2657L0.551663 6.06568C0.223595 5.91107 0.0958698 5.55895 0.262469 5.26953C0.429068 4.9801 0.830612 4.85707 1.17022 4.99188L10.8565 9.19186C11.1427 9.31678 11.2926 9.59583 11.2187 9.8664C11.1448 10.137 10.8671 10.3274 10.5468 10.3288Z" fill="white"/>
<path fill-rule="evenodd" clip-rule="evenodd" d="M10.5472 10.33C10.2259 10.3304 9.94657 10.1391 9.87266 9.86802C9.79876 9.59698 9.94955 9.31745 10.2375 9.19301L19.9238 4.99303C20.2659 4.84502 20.6815 4.96522 20.852 5.26172C21.0224 5.55821 20.8839 5.91882 20.5423 6.06683L10.856 10.2668C10.7591 10.3083 10.6535 10.33 10.5472 10.33ZM10.5468 19.9296C10.44 19.9296 10.3349 19.9084 10.2375 19.8664L0.551663 15.6664C0.223595 15.5118 0.0958698 15.1597 0.262469 14.8703C0.429068 14.5809 0.830612 14.4578 1.17022 14.5926L10.8565 18.7926C11.1427 18.9175 11.2926 19.1966 11.2187 19.4672C11.1448 19.7377 10.8671 19.9282 10.5468 19.9296Z" fill="white"/>
<path fill-rule="evenodd" clip-rule="evenodd" d="M10.5467 19.9306C10.2254 19.9311 9.94606 19.7397 9.87216 19.4687C9.79825 19.1976 9.94904 18.9181 10.237 18.7937L19.9232 14.5937C20.2607 14.4674 20.6537 14.5918 20.8181 14.877C20.9826 15.1622 20.8612 15.5091 20.5418 15.6675L10.8555 19.8675C10.7585 19.9089 10.653 19.9306 10.5467 19.9306ZM29.9188 10.331C29.8119 10.331 29.7069 10.3098 29.6094 10.2678L19.9232 6.06788C19.5951 5.91327 19.4674 5.56114 19.634 5.27171C19.8006 4.98228 20.2021 4.85927 20.5418 4.99408L30.228 9.19404C30.5142 9.31896 30.6641 9.59801 30.5902 9.86858C30.5163 10.1392 30.2392 10.3296 29.9188 10.331Z" fill="white"/>
<path fill-rule="evenodd" clip-rule="evenodd" d="M29.9157 10.33C29.5945 10.3304 29.3151 10.1391 29.2412 9.86802C29.1673 9.59698 29.318 9.31745 29.6059 9.19301L39.2922 4.99303C39.6343 4.84502 40.05 4.96522 40.2205 5.26172C40.3909 5.55821 40.2524 5.91882 39.9107 6.06683L30.2245 10.2668C30.1276 10.3083 30.022 10.33 29.9157 10.33ZM0.856093 15.7301C0.474194 15.7301 0.164062 15.4614 0.164062 15.13V5.5304C0.164062 5.19902 0.473767 4.93034 0.856093 4.93034C1.23842 4.93034 1.54811 5.19902 1.54811 5.5304V15.13C1.54811 15.4614 1.23842 15.7301 0.856093 15.7301ZM20.2282 15.7301C19.8463 15.7301 19.5361 15.4614 19.5361 15.13V5.5304C19.5361 5.19902 19.8458 4.93034 20.2282 4.93034C20.6105 4.93034 20.9202 5.19902 20.9202 5.5304V15.13C20.9202 15.4614 20.6105 15.7301 20.2282 15.7301ZM10.5423 19.93C10.1604 19.93 9.8503 19.6614 9.8503 19.33V9.73038C9.8503 9.399 10.16 9.13031 10.5423 9.13031C10.9247 9.13031 11.2343 9.399 11.2343 9.73038V19.33C11.2343 19.6614 10.9247 19.93 10.5423 19.93Z" fill="white"/>
<path fill-rule="evenodd" clip-rule="evenodd" d="M29.9174 19.9294C29.5961 19.9299 29.3167 19.7385 29.2428 19.4675C29.169 19.1964 29.3197 18.9169 29.6077 18.7924L39.2939 14.5925C39.6335 14.4576 40.0346 14.5807 40.2017 14.8701C40.3687 15.1595 40.2406 15.5116 39.9125 15.6663L30.2261 19.8662C30.1293 19.9077 30.0237 19.9294 29.9174 19.9294ZM20.2312 15.7294C19.8492 15.7294 19.5391 15.4607 19.5391 15.1294V5.52975C19.5391 5.19837 19.8488 4.92969 20.2312 4.92969C20.6135 4.92969 20.9231 5.19837 20.9231 5.52975V15.1294C20.9231 15.4607 20.6135 15.7294 20.2312 15.7294Z" fill="white"/>
<path fill-rule="evenodd" clip-rule="evenodd" d="M39.6045 15.7294C39.2226 15.7294 38.9125 15.4607 38.9125 15.1294V5.52975C38.9125 5.19837 39.2222 4.92969 39.6045 4.92969C39.9868 4.92969 40.2966 5.19837 40.2966 5.52975V15.1294C40.2966 15.4607 39.9868 15.7294 39.6045 15.7294ZM29.9183 19.9294C29.5364 19.9294 29.2263 19.6607 29.2263 19.3293V9.72973C29.2263 9.39835 29.536 9.12966 29.9183 9.12966C30.3006 9.12966 30.6103 9.39835 30.6103 9.72973V19.3293C30.6103 19.6607 30.3006 19.9294 29.9183 19.9294ZM10.5467 19.9294C10.2254 19.9299 9.94606 19.7385 9.87216 19.4675C9.79825 19.1964 9.94904 18.9169 10.237 18.7924L19.9232 14.5925C20.2607 14.4661 20.6537 14.5906 20.8181 14.8758C20.9826 15.1609 20.8612 15.5079 20.5418 15.6663L10.8559 19.8662C10.759 19.9077 10.653 19.9294 10.5467 19.9294Z" fill="white"/>
<path fill-rule="evenodd" clip-rule="evenodd" d="M29.9107 19.9306C29.804 19.9306 29.6988 19.9094 29.6015 19.8675L19.9156 15.6675C19.5875 15.5129 19.4598 15.1608 19.6264 14.8713C19.7931 14.5819 20.1946 14.4589 20.5342 14.5937L30.2204 18.7937C30.5067 18.9186 30.6566 19.1976 30.5827 19.4682C30.5088 19.7388 30.2311 19.9292 29.9107 19.9306ZM20.2245 24.1311C20.1177 24.1311 20.0126 24.1099 19.9153 24.0679L10.2294 19.8679C9.90134 19.7133 9.7736 19.3612 9.9402 19.0718C10.1068 18.7824 10.5084 18.6593 10.848 18.7941L20.5337 22.9941C20.82 23.119 20.9699 23.3981 20.896 23.6687C20.8221 23.9392 20.5449 24.1297 20.2245 24.1311Z" fill="white"/>
<path fill-rule="evenodd" clip-rule="evenodd" d="M20.2253 24.1288C19.9041 24.1293 19.6248 23.9379 19.5508 23.6668C19.4769 23.3958 19.6277 23.1163 19.9156 22.9918L29.6019 18.7919C29.9441 18.6438 30.3597 18.764 30.5301 19.0605C30.7006 19.357 30.5622 19.7176 30.2204 19.8657L20.5342 24.0656C20.4372 24.1071 20.3317 24.1288 20.2253 24.1288ZM20.225 34.9285C20.1181 34.9285 20.0131 34.9073 19.9156 34.8654L10.2294 30.6654C9.90134 30.5108 9.7736 30.1587 9.9402 29.8692C10.1068 29.5798 10.5084 29.4568 10.848 29.5916L20.5342 33.7916C20.8204 33.9165 20.9703 34.1955 20.8964 34.4661C20.8226 34.7367 20.5454 34.9271 20.225 34.9285Z" fill="white"/>
<path fill-rule="evenodd" clip-rule="evenodd" d="M20.2231 34.9293C19.8945 34.9293 19.6117 34.729 19.5455 34.45C19.4793 34.1709 19.6489 33.8904 19.9505 33.7778L29.6367 30.1779C29.8652 30.085 30.1344 30.1072 30.3386 30.2363C30.5427 30.3655 30.6491 30.5814 30.6167 30.7982C30.5842 31.015 30.4172 31.2003 30.1817 31.2795L20.4955 34.8794C20.4078 34.9125 20.3157 34.9293 20.2231 34.9293Z" fill="white"/>
<path fill-rule="evenodd" clip-rule="evenodd" d="M29.9254 31.328C29.5435 31.328 29.2334 31.0593 29.2334 30.7279V19.3286C29.2334 18.9972 29.5431 18.7285 29.9254 18.7285C30.3077 18.7285 30.6174 18.9972 30.6174 19.3286V30.7284C30.6174 31.0598 30.3077 31.328 29.9254 31.328ZM10.5534 30.7284C10.1715 30.7284 9.86133 30.4597 9.86133 30.1283V19.3286C9.86133 18.9972 10.171 18.7285 10.5534 18.7285C10.9357 18.7285 11.2454 18.9972 11.2454 19.3286V30.1283C11.2454 30.4597 10.9357 30.7284 10.5534 30.7284ZM20.2396 34.9284C19.8577 34.9284 19.5475 34.6597 19.5475 34.3283V23.5281C19.5475 23.1967 19.8572 22.928 20.2396 22.928C20.6219 22.928 20.9316 23.1967 20.9316 23.5281V34.3278C20.9316 34.6592 20.6219 34.9284 20.2396 34.9284Z" fill="white"/>
<path d="M59.4806 29.2498C57.5513 29.2498 55.8087 28.7749 54.2544 27.825C52.7046 26.8752 51.4876 25.5697 50.6028 23.9092C49.7234 22.2429 49.2832 20.3682 49.2832 18.2853C49.2832 16.2024 49.7234 14.3277 50.6028 12.6614C51.4876 10.9951 52.7098 9.68703 54.2694 8.73722C55.8343 7.7874 57.5813 7.3125 59.5106 7.3125C61.0199 7.3125 62.3996 7.59328 63.6495 8.15399C64.8995 8.71472 65.9642 9.54788 66.8438 10.6535L65.0517 12.5865C63.6022 10.8868 61.7923 10.037 59.6231 10.037C58.1887 10.037 56.8915 10.3952 55.7315 11.1117C54.5716 11.8282 53.6673 12.8139 53.0172 14.0695C52.3626 15.325 52.035 16.7297 52.035 18.2853C52.035 19.8349 52.3626 21.2372 53.0172 22.4928C53.6673 23.7534 54.5716 24.7399 55.7315 25.4506C56.8915 26.1671 58.1887 26.5253 59.6231 26.5253C61.7727 26.5253 63.5821 25.6672 65.0517 23.9509L66.8438 25.8838C65.9642 26.9836 64.8942 27.8193 63.6345 28.3916C62.3749 28.964 60.99 29.2498 59.4806 29.2498ZM84.7455 29.0082L82.6161 23.6426H72.3586L70.2367 29.0082H67.3948L76.1376 7.56245H78.867L87.6398 29.0082H84.7455ZM73.3258 21.1931H81.6562L77.4873 10.6868L73.3258 21.1931ZM90.5048 29.0082V7.56245H98.6402C100.68 7.56245 102.491 8.00986 104.076 8.90385C105.655 9.80367 106.883 11.0676 107.758 12.6947C108.628 14.3169 109.063 16.1799 109.063 18.2853C109.063 20.3907 108.628 22.2537 107.758 23.8758C106.883 25.4981 105.655 26.7587 104.076 27.6584C102.491 28.5583 100.68 29.0082 98.6402 29.0082H90.5048ZM93.264 26.3421H98.4752C100.039 26.3421 101.415 26.0062 102.599 25.3339C103.784 24.6565 104.699 23.7092 105.344 22.4928C105.988 21.2822 106.311 19.8791 106.311 18.2853C106.311 16.6914 105.988 15.2859 105.344 14.0695C104.699 12.853 103.784 11.9091 102.599 11.2367C101.415 10.5643 100.039 10.2286 98.4752 10.2286H93.264V26.3421ZM116.042 26.3421H127.289V29.0082H113.283V7.56245H126.906V10.2286H116.042V16.8106H125.722V19.4184H116.042V26.3421ZM145.6 7.56245H148.36V29.0082H146.103L134.518 13.0114V29.0082H131.759V7.56245H134.023L145.6 23.5509V7.56245ZM156.137 26.3421H168.577V29.0082H152.441V26.9253L164.573 10.2286H152.635V7.56245H168.217V9.64536L156.137 26.3421ZM186.695 29.0082L184.565 23.6426H174.308L172.186 29.0082H169.344L178.086 7.56245H180.815L189.589 29.0082H186.695ZM175.274 21.1931H183.605L179.436 10.6868L175.274 21.1931Z" fill="white"/>
</svg>
