<svg width="3395" height="768" viewBox="0 0 3395 768" fill="none" xmlns="http://www.w3.org/2000/svg">
<path d="M374.597 192.009C379.551 191.78 383.579 195.833 383.579 200.806V566.995C383.579 571.968 379.551 576.022 374.597 575.793C272.961 571.089 192 486.975 192 383.901C192 280.827 272.961 196.713 374.597 192.009Z" fill="white"/>
<path d="M615.935 575.793C610.98 576.022 606.952 571.968 606.952 566.995V200.806C606.952 195.833 610.98 191.78 615.935 192.009C717.571 196.713 798.531 280.827 798.531 383.901C798.531 486.975 717.571 571.089 615.935 575.793Z" fill="white"/>
<path d="M399.068 200.806C399.068 195.833 403.097 191.78 408.051 192.009C509.687 196.713 590.648 280.827 590.648 383.901V566.995C590.648 571.968 586.62 576.022 581.665 575.793C480.029 571.089 399.068 486.975 399.068 383.901V200.806Z" fill="white"/>
<path d="M814.021 200.806C814.021 195.833 818.049 191.78 823.003 192.009C924.639 196.713 1005.6 280.827 1005.6 383.901V566.995C1005.6 571.968 1001.58 576 996.62 576H823.001C818.042 576 814.021 571.968 814.021 566.995V200.806Z" fill="white"/>
<path d="M2962.23 544.765H2934.29V225.125H2958.92L3175.33 495.517V225.125H3202.79V544.765H3178.17L2962.23 275.32V544.765Z" fill="white"/>
<path d="M2643.36 544.765H2613.53L2756.07 225.125H2777.85L2920.38 544.765H2890.55L2855.51 465.684H2678.41L2643.36 544.765ZM2843.67 439.165L2766.96 266.797L2690.24 439.165H2843.67Z" fill="white"/>
<path d="M2463.14 544.765H2338.6V225.125H2463.14C2509.55 225.125 2548.38 240.278 2579.63 271.058C2611.36 301.839 2626.98 339.722 2626.98 384.708C2626.98 429.695 2611.36 468.051 2579.63 498.832C2548.38 529.612 2509.55 544.765 2463.14 544.765ZM2463.14 251.643H2367.48V518.247H2463.14C2501.5 518.247 2533.22 505.461 2558.8 479.89C2584.84 454.319 2597.63 422.591 2597.63 384.708C2597.63 351.087 2587.21 322.201 2565.9 298.05C2545.06 273.426 2518.07 258.746 2485.4 253.537C2481.61 252.59 2477.82 252.117 2473.56 252.117C2471.19 251.643 2467.88 251.643 2463.14 251.643Z" fill="white"/>
<path d="M2047.67 544.765H2017.83L2160.37 225.125H2182.15L2324.69 544.765H2294.86L2259.81 465.684H2082.71L2047.67 544.765ZM2247.97 439.165L2171.26 266.797L2094.55 439.165H2247.97Z" fill="white"/>
<path d="M1820.59 225.125H1849.48V518.247H2029.42V544.765H1820.59V225.125Z" fill="white"/>
<path d="M1529.66 544.765H1499.82L1642.36 225.125H1664.14L1806.68 544.765H1776.85L1741.8 465.684H1564.7L1529.66 544.765ZM1729.96 439.165L1653.25 266.797L1576.54 439.165H1729.96Z" fill="white"/>
<path d="M1204.21 384.717C1204.21 337.837 1219.84 299.006 1250.62 268.226C1281.87 236.973 1320.7 221.346 1367.58 221.346C1428.67 221.346 1480.76 251.179 1509.17 299.953L1481.7 310.845C1458.5 272.488 1416.36 248.811 1367.58 248.811C1329.22 248.811 1297.5 261.597 1271.45 287.641C1245.88 313.686 1233.09 345.887 1233.09 384.717C1233.09 423.548 1245.88 456.222 1271.45 482.267C1297.5 508.311 1329.22 521.097 1367.58 521.097C1416.36 521.097 1458.5 497.42 1481.7 459.063L1509.17 469.955C1480.76 518.729 1428.19 549.036 1367.58 549.036C1320.7 549.036 1281.87 533.409 1250.62 502.155C1219.84 470.902 1204.21 431.598 1204.21 384.717Z" fill="white"/>
</svg>
