<svg width="177" height="30" viewBox="0 0 177 30" fill="none" xmlns="http://www.w3.org/2000/svg">
<path d="M41.4519 10.1586C42.3101 10.1508 43.1543 10.377 43.8936 10.8129C44.6287 11.2378 45.2392 11.8484 45.6641 12.5835C46.1001 13.3228 46.3263 14.1669 46.3184 15.0252C46.3193 15.5463 46.2373 16.0643 46.0756 16.5597C45.9208 17.0449 45.686 17.5008 45.3808 17.9087C45.0818 18.3055 44.7288 18.6585 44.332 18.9575C43.9247 19.2643 43.4687 19.5003 42.983 19.6556C42.4865 19.8176 41.9674 19.8996 41.4451 19.8984H39.3879V18.2122H41.4451C41.7889 18.2139 42.1307 18.1592 42.4569 18.0503C42.7739 17.9502 43.0707 17.7949 43.3337 17.5916C43.5866 17.3968 43.8134 17.1701 44.0082 16.9171C44.2089 16.6537 44.364 16.3584 44.4669 16.0437C44.5741 15.7172 44.6277 15.3755 44.6254 15.0319C44.6263 14.6136 44.5445 14.1992 44.3849 13.8125C44.2252 13.4259 43.9907 13.0746 43.6949 12.7788C43.3991 12.4829 43.0478 12.2485 42.6611 12.0888C42.2745 11.9291 41.8601 11.8474 41.4417 11.8483H39.3845V10.162L41.4519 10.1586Z" fill="white"/>
<path d="M56.1087 11.8415H49.2524V10.1553H56.1087V11.8415ZM54.9553 15.8885H49.2524V14.1686H54.9553V15.8885ZM56.1087 19.9018H49.2524V18.2156H56.1087V19.9018Z" fill="white"/>
<path d="M60.7258 18.2156H65.8959V19.9018H59.043V10.1587H60.7292L60.7258 18.2156Z" fill="white"/>
<path d="M72.8363 10.1586C73.2106 10.1586 73.5811 10.2324 73.9269 10.3756C74.2726 10.5188 74.5868 10.7287 74.8514 10.9933C75.116 11.2579 75.326 11.5721 75.4692 11.9179C75.6124 12.2636 75.6861 12.6342 75.6861 13.0084C75.6861 13.3826 75.6124 13.7532 75.4692 14.099C75.326 14.4447 75.116 14.7589 74.8514 15.0235C74.5868 15.2881 74.2726 15.498 73.9269 15.6412C73.5811 15.7845 73.2106 15.8582 72.8363 15.8582H70.5127V19.9052H68.8264V14.1686H72.833C72.9865 14.1722 73.1391 14.1441 73.2813 14.0861C73.4234 14.0281 73.5521 13.9413 73.6592 13.8313C73.8771 13.6115 73.9994 13.3145 73.9994 13.005C73.9994 12.6955 73.8771 12.3986 73.6592 12.1788C73.5521 12.0688 73.4234 11.982 73.2813 11.924C73.1391 11.866 72.9865 11.8379 72.833 11.8415H68.8298V10.1553L72.8363 10.1586Z" fill="white"/>
<path d="M84.3772 10.1587H86.0634V19.9018H84.3772V15.8717H80.3032V19.9018H78.6169V10.1587H80.3032V14.1686H84.3772V10.1587Z" fill="white"/>
<path d="M90.6736 19.9018H88.9873V10.1587H90.6736V19.9018Z" fill="white"/>
<path d="M106.4 10.1587H108.194L104.649 19.9018H102.855L99.3105 10.1587H101.091L103.735 17.4298L106.4 10.1587Z" fill="white"/>
<path d="M117.971 11.8415H111.114V10.1553H117.971V11.8415ZM116.814 15.8885H111.114V14.1686H116.814V15.8885ZM117.971 19.9018H111.114V18.2156H117.971V19.9018Z" fill="white"/>
<path d="M126.385 10.1587H128.071V19.9018H126.385L122.584 13.4941V19.9018H120.898V10.1587H122.584L126.382 16.5664L126.385 10.1587Z" fill="white"/>
<path d="M130.985 10.1587H137.852V11.8449H135.265V19.9018H133.579V11.8416H130.992L130.985 10.1587Z" fill="white"/>
<path d="M145.945 10.1587H147.632V16.4552C147.646 16.9144 147.568 17.3718 147.402 17.8004C147.236 18.2289 146.986 18.6197 146.667 18.9496C146.347 19.2796 145.964 19.5419 145.541 19.7211C145.118 19.9002 144.663 19.9925 144.204 19.9925C143.744 19.9925 143.289 19.9002 142.866 19.7211C142.443 19.5419 142.06 19.2796 141.741 18.9496C141.421 18.6197 141.171 18.2289 141.005 17.8004C140.839 17.3718 140.761 16.9144 140.775 16.4552V10.1587H142.462V16.4552C142.461 16.8014 142.563 17.1401 142.754 17.4283C142.946 17.7164 143.22 17.9411 143.539 18.0737C143.859 18.2063 144.211 18.2409 144.551 18.1731C144.89 18.1053 145.202 17.9382 145.446 17.6929C145.611 17.5319 145.74 17.3391 145.827 17.1263C145.914 16.9134 145.957 16.685 145.952 16.4552L145.945 10.1587Z" fill="white"/>
<path d="M157.412 13.0086C157.417 13.5397 157.269 14.061 156.984 14.5093C156.706 14.9543 156.312 15.3147 155.844 15.5514L157.412 19.902H155.625L154.164 15.8819H150.562V14.1687H154.566C154.875 14.1687 155.172 14.0458 155.391 13.8269C155.61 13.6081 155.733 13.3113 155.733 13.0018C155.733 12.6923 155.61 12.3955 155.391 12.1767C155.172 11.9579 154.875 11.8349 154.566 11.8349H150.562V10.1487H154.566C154.941 10.1482 155.312 10.222 155.659 10.3657C156.005 10.5095 156.32 10.7203 156.584 10.9861C156.849 11.252 157.058 11.5675 157.2 11.9146C157.342 12.2617 157.414 12.6335 157.412 13.0086Z" fill="white"/>
<path d="M167.192 11.8415H160.349V10.1553H167.192V11.8415ZM166.039 15.8885H160.349V14.1686H166.052L166.039 15.8885ZM167.192 19.9018H160.349V18.2156H167.192V19.9018Z" fill="white"/>
<path d="M174.143 14.1686C174.52 14.1615 174.895 14.2328 175.243 14.378C175.592 14.5231 175.906 14.7389 176.167 15.0117C176.565 15.4115 176.837 15.9206 176.946 16.4745C177.056 17.0284 176.998 17.6024 176.782 18.1238C176.565 18.6453 176.199 19.0909 175.73 19.4044C175.26 19.7178 174.708 19.8851 174.143 19.8849H170.14V18.1987H174.143C174.297 18.2014 174.45 18.1729 174.593 18.115C174.735 18.057 174.864 17.9708 174.973 17.8614C175.191 17.6411 175.313 17.3435 175.313 17.0335C175.313 16.7234 175.191 16.4259 174.973 16.2055C174.864 16.0962 174.735 16.01 174.593 15.952C174.45 15.8941 174.297 15.8656 174.143 15.8683H172.99C172.232 15.8683 171.506 15.5673 170.97 15.0316C170.434 14.4959 170.133 13.7694 170.133 13.0118C170.133 12.2542 170.434 11.5276 170.97 10.9919C171.506 10.4562 172.232 10.1553 172.99 10.1553H176.423V11.8415H172.99C172.681 11.8468 172.386 11.9723 172.168 12.1915C171.95 12.4106 171.826 12.7061 171.823 13.0152C171.819 13.1677 171.847 13.3193 171.905 13.4604C171.963 13.6015 172.05 13.729 172.16 13.8347C172.267 13.9437 172.394 14.0298 172.535 14.0878C172.676 14.1458 172.827 14.1744 172.98 14.1719L174.143 14.1686Z" fill="white"/>
<path d="M19.1394 3.29892C18.7904 3.45961 18.4524 3.64325 18.1277 3.84864C17.9726 3.94307 17.8208 4.04087 17.6758 4.13867C17.4498 3.69687 16.4718 2.00388 14.8159 2.00388C14.3404 2.03423 12.155 2.34113 11.5108 5.22799V5.2516C11.4333 5.55175 11.3793 5.87214 11.322 6.20939C11.1635 7.13683 10.9847 8.18905 10.2866 9.18394C9.4816 10.2745 8.32294 11.0517 7.00855 11.3828C6.87702 11.1872 6.74549 10.9983 6.61734 10.8196C6.42511 10.5498 6.24636 10.2969 6.09123 10.0406V10.0169C6.06087 9.96973 6.03389 9.92251 6.00691 9.8753C6.12495 9.8753 7.96971 9.59538 8.91401 8.22277C9.35918 7.53141 9.48059 6.74899 9.62224 5.9261C9.67957 5.58885 9.74365 5.21113 9.83133 4.85027C10.5463 1.65651 12.9071 0.412057 14.7113 0.317627H14.7957C17.3217 0.317627 18.7078 2.5165 19.1394 3.29892ZM4.68827 12.1652C5.17053 12.8397 5.62919 13.494 5.77421 14.3236C6.07774 15.9627 4.96481 17.4533 4.89062 17.5511L5.04912 17.5882H5.0761C5.36614 17.6624 5.66966 17.713 5.99005 17.767C6.21264 17.804 6.43859 17.8445 6.66455 17.8917C7.3609 16.7302 7.63378 15.3634 7.43686 14.0235C7.22776 12.8262 6.61059 11.9561 6.06425 11.1872C5.86527 10.9073 5.67978 10.6442 5.52127 10.3778V10.3576C3.92608 7.8518 5.26159 6.10147 5.57861 5.74061C6.74886 4.56361 8.64421 5.06611 9.11636 5.22125C9.15009 5.04925 9.18718 4.884 9.23103 4.69514C9.31787 4.32019 9.43056 3.95171 9.56828 3.59233C8.71841 3.32927 6.1553 2.74583 4.36788 4.57373L4.3409 4.6007C3.13354 5.9497 2.34438 8.49257 4.09808 11.2547C4.2667 11.575 4.48254 11.8752 4.68827 12.1652ZM8.87017 19.4363C7.85842 18.7382 6.82306 18.5595 5.89562 18.401C5.55837 18.3437 5.22112 18.2897 4.93446 18.2121H4.91422C2.01387 17.568 1.72046 15.386 1.69011 14.9071C1.69011 13.2444 3.37636 12.263 3.8249 12.0371C3.72373 11.8921 3.6293 11.7403 3.53487 11.5852C3.32627 11.2623 3.1425 10.9241 2.98515 10.5734C2.19936 10.9916 -0.0264927 12.3912 0.000487275 14.9577V14.9948C0.0949173 16.799 1.34949 19.1598 4.53313 19.8748C4.89399 19.9658 5.25485 20.0265 5.60896 20.0872C6.43185 20.2255 7.21427 20.3604 7.90226 20.8427C9.27487 21.787 9.5413 23.6284 9.55816 23.7498L9.6998 23.6655H9.72341C9.97972 23.5103 10.2327 23.3282 10.4991 23.1427C10.6812 23.0146 10.8701 22.8797 11.0657 22.7481C10.7412 21.4225 9.96485 20.2514 8.87017 19.4363ZM13.7097 22.2625C12.5125 22.4716 11.6424 23.0888 10.8734 23.6351C10.5935 23.8341 10.3305 24.0196 10.064 24.1815H10.0438C7.53803 25.7766 5.7877 24.4411 5.42684 24.1241C4.24647 22.9539 4.75234 21.0585 4.90748 20.5864C4.73548 20.5526 4.57023 20.5155 4.38137 20.4717C4.00533 20.3848 3.63573 20.2722 3.27519 20.1344C3.01213 20.9843 2.43206 23.5474 4.25996 25.3382L4.28356 25.3618C5.21719 26.1919 6.42367 26.6493 7.67293 26.6467C8.83984 26.6296 9.97742 26.2785 10.951 25.635C11.268 25.4428 11.5682 25.2303 11.8616 25.0212C12.5361 24.5389 13.187 24.0803 14.02 23.9353C15.659 23.6317 17.1497 24.748 17.2441 24.8189C17.2441 24.7683 17.2744 24.7143 17.2846 24.6603V24.6334C17.3588 24.3433 17.4093 24.0364 17.4633 23.7093C17.5004 23.4935 17.5409 23.2675 17.5847 23.0348C16.4217 22.3358 15.0519 22.0628 13.7097 22.2625ZM23.3281 19.9962V19.9726C23.1763 19.7163 22.9908 19.4633 22.8053 19.1969L22.4141 18.6337C21.0999 18.9632 19.941 19.7393 19.1361 20.8292C18.4346 21.8409 18.2558 22.8763 18.1007 23.8071C18.0434 24.1444 17.986 24.4614 17.9118 24.7649V24.7851C17.2677 27.6855 15.0857 27.9789 14.6068 28.0092C12.9475 28.0092 11.9661 26.323 11.7368 25.8744C11.5918 25.9756 11.4434 26.0734 11.2849 26.1679C10.9614 26.3735 10.6233 26.5549 10.2731 26.7108C10.661 27.4764 12.0572 29.682 14.5764 29.682H14.6608C16.465 29.5876 18.8258 28.333 19.5408 25.1494C19.6285 24.7885 19.6925 24.4276 19.7499 24.0769C19.8915 23.2506 20.023 22.4682 20.5087 21.7802C21.453 20.4076 23.2977 20.1412 23.4158 20.1243C23.3888 20.0771 23.3584 20.0299 23.3281 19.9827V19.9962ZM25.2943 18.7585C25.102 18.4415 24.8896 18.1413 24.6838 17.8479C24.1982 17.1734 23.7429 16.5225 23.5979 15.6895C23.2944 14.0538 24.4073 12.5598 24.4815 12.4654L24.3196 12.4249H24.296C24.006 12.3541 23.7024 12.3001 23.382 12.2462L22.7075 12.1248C22.0101 13.2871 21.7394 14.6561 21.942 15.9964C22.1511 17.1936 22.7682 18.0637 23.3146 18.8327C23.5102 19.1126 23.6991 19.3756 23.8576 19.6421V19.6623C25.4528 22.1681 24.1173 23.9218 23.8002 24.2793C22.6266 25.4596 20.7346 24.9538 20.2625 24.7986C20.2288 24.974 20.1917 25.1359 20.1478 25.3247C20.0625 25.7012 19.9498 26.0709 19.8106 26.4309C20.4446 26.6254 21.1035 26.7265 21.7666 26.7311C22.367 26.7496 22.9648 26.6452 23.5233 26.4243C24.0818 26.2033 24.5892 25.8704 25.0143 25.4461L25.0379 25.4225C26.2588 24.0567 27.048 21.5104 25.2943 18.745V18.7585ZM29.3682 15.0487C29.2738 13.2411 28.0192 10.8803 24.8356 10.1687C24.4747 10.0776 24.1105 10.0169 23.7598 9.95624C22.9335 9.81459 22.1545 9.68307 21.4665 9.19743C20.0939 8.25312 19.8241 6.41174 19.8106 6.29033L19.6689 6.37801H19.6453C19.389 6.53315 19.1327 6.71526 18.8663 6.90412L18.3031 7.29196C18.6327 8.60261 19.4046 9.75931 20.4884 10.5667C21.4833 11.2648 22.5355 11.4435 23.463 11.602C23.8002 11.6594 24.1375 11.7133 24.4208 11.7875H24.4444C27.3447 12.4317 27.6381 14.6137 27.6685 15.0926C27.6685 16.7552 25.9822 17.7332 25.5337 17.9626C25.6315 18.1076 25.7293 18.256 25.8237 18.4145C26.0312 18.738 26.2149 19.0761 26.3735 19.4262C27.1592 19.0114 29.3851 17.6084 29.3547 15.042L29.3682 15.0487ZM23.9453 5.88226C25.1223 7.05251 24.6198 8.94449 24.4646 9.41664C24.6366 9.45036 24.8019 9.48746 24.9907 9.5313C25.3661 9.61657 25.7347 9.72929 26.0935 9.86855C26.36 9.01531 26.94 6.45221 25.1121 4.66478L25.0852 4.64117C23.7362 3.43045 21.1933 2.64128 18.4312 4.39498C18.094 4.58721 17.8107 4.79968 17.5206 5.00541C16.8461 5.49105 16.1919 5.94633 15.3622 6.09472C13.7266 6.39487 12.2326 5.28195 12.1348 5.20776C12.1348 5.26171 12.1078 5.3123 12.0977 5.36964V5.39324C12.0235 5.68665 11.9729 5.99355 11.9155 6.31731C11.8784 6.53652 11.8413 6.76248 11.7941 6.99181C12.9562 7.68672 14.3229 7.95839 15.6624 7.76074C16.8596 7.55164 17.7297 6.93448 18.4987 6.38813C18.7786 6.19253 19.0416 6.00366 19.3081 5.84516H19.3283C21.8374 4.22636 23.5844 5.56187 23.9453 5.88226Z" fill="white"/>
</svg>
