<svg width="333" height="103" viewBox="0 0 333 103" fill="none" xmlns="http://www.w3.org/2000/svg">
<path d="M66.8838 18.0188C64.2953 16.3664 60.8257 17.3371 59.4908 20.0733L48.9046 41.7576C48.7358 42.1067 48.8064 42.536 49.083 42.8155L49.4386 43.1741C49.7235 43.4536 50.1498 43.5232 50.5065 43.3486L72.5157 32.9216C75.2909 31.6019 76.2703 28.184 74.5977 25.6318C72.5959 22.5819 69.9632 19.986 66.8671 18.0188H66.885H66.8838ZM56.7155 37.3785L54.2959 38.3928C54.0289 38.506 53.7715 38.2442 53.878 37.9824L54.9017 35.6047C55.1327 35.0716 55.6751 34.7485 56.2534 34.7827C56.9478 34.8263 57.4985 35.3677 57.5428 36.0505C57.5787 36.6273 57.2495 37.1603 56.7059 37.388L56.7155 37.3797V37.3785Z" fill="url(#paint0_linear_753_24)"/>
<path d="M51.013 44.5186C50.6394 44.6495 50.382 44.9998 50.382 45.3925V45.8902C50.382 46.283 50.6311 46.6332 51.013 46.7641L74.0637 54.7262C76.9731 55.7311 80.1218 53.9926 80.7719 51.0288C81.5454 47.48 81.5454 43.8098 80.7719 40.261C80.123 37.2889 76.9826 35.5587 74.0637 36.5636L51.013 44.5257V44.5174V44.5186ZM61.1992 46.5118C60.8173 46.9399 60.1935 47.0885 59.6512 46.8703L57.2136 45.8996C56.9466 45.7947 56.9466 45.4279 57.2136 45.3147L59.6512 44.344C60.1935 44.1258 60.8161 44.2744 61.1992 44.7026C61.6614 45.218 61.6614 45.9869 61.1992 46.4941V46.5118Z" fill="url(#paint1_linear_753_24)"/>
<path d="M72.5337 58.3717L50.5245 47.9447C50.1689 47.7784 49.7331 47.848 49.4566 48.1193L49.101 48.4778C48.816 48.7573 48.7454 49.1772 48.9226 49.5357L59.5087 71.2201C60.8437 73.9562 64.3121 74.9257 66.9018 73.2746C69.9979 71.3085 72.6307 68.7127 74.6325 65.6616C76.305 63.1094 75.3269 59.6927 72.5504 58.3729H72.5325L72.5337 58.3717ZM57.5428 55.1909C57.4985 55.8726 56.9466 56.4139 56.2534 56.4576C55.6667 56.493 55.1232 56.1604 54.9017 55.6355L53.878 53.2579C53.7619 52.9961 54.0289 52.7331 54.2959 52.8475L56.7155 53.8617C57.2495 54.0894 57.5871 54.6224 57.5512 55.1992L57.5428 55.1909Z" fill="url(#paint2_linear_753_24)"/>
<path d="M47.7134 50.0169C47.5805 49.6501 47.2237 49.3965 46.8238 49.3965H46.3174C45.9175 49.3965 45.5607 49.6407 45.4278 50.0169L37.3499 72.7238C36.3263 75.5909 38.0886 78.6927 41.1045 79.3307C44.7071 80.0997 48.4353 80.0997 52.0378 79.3307C55.0537 78.6927 56.8149 75.5897 55.7924 72.7238L47.7146 50.0169H47.7134ZM47.4548 60.05C46.9387 60.5041 46.1557 60.5041 45.6313 60.05C45.1955 59.6655 45.0447 59.0534 45.2662 58.5203L46.2443 56.1262C46.3509 55.8643 46.7244 55.8643 46.831 56.1262L47.8091 58.5203C48.0318 59.0534 47.881 59.6655 47.444 60.05H47.4524H47.4548Z" fill="url(#paint3_linear_753_24)"/>
<path d="M42.1353 46.7653C42.5089 46.6344 42.7663 46.2841 42.7663 45.8914V45.3937C42.7663 45.001 42.5173 44.6507 42.1353 44.5198L19.0858 36.5577C16.1765 35.5528 13.0277 37.2924 12.3776 40.2551C11.6041 43.8039 11.6041 47.4741 12.3776 51.0229C13.0265 53.995 16.1669 55.7252 19.0858 54.7203L42.1353 46.7582V46.7665V46.7653ZM31.8868 44.7203C32.27 44.2921 32.8925 44.1435 33.4349 44.3617L35.8641 45.3324C36.1311 45.4373 36.1311 45.8041 35.8641 45.9185L33.4349 46.8892C32.8925 47.1073 32.27 46.9587 31.8868 46.5306C31.4247 46.0152 31.4247 45.2463 31.8868 44.7391V44.7214V44.7203Z" fill="url(#paint4_linear_753_24)"/>
<path d="M44.0569 48.4778L43.7013 48.1193C43.4164 47.8398 42.9902 47.7702 42.6334 47.9447L20.6242 58.3717C17.849 59.6832 16.8696 63.1094 18.5422 65.6604C20.544 68.7103 23.1768 71.3062 26.2729 73.2734C28.8614 74.9257 32.331 73.9551 33.6659 71.2189L44.2437 49.5345C44.4221 49.176 44.3419 48.7561 44.0653 48.4766H44.0569V48.4778ZM39.208 53.2496L38.1844 55.6273C37.9533 56.1604 37.411 56.4835 36.8327 56.4493C36.1383 56.4057 35.5875 55.8643 35.5432 55.1827C35.5073 54.6059 35.8366 54.0728 36.3789 53.8452L38.7986 52.8309C39.0656 52.7177 39.323 52.9795 39.2164 53.2414L39.208 53.2496Z" fill="url(#paint5_linear_753_24)"/>
<path d="M92.9074 45.6815V45.6425C92.9074 39.4814 91.6826 33.5042 89.2653 27.875C86.9307 22.4391 83.5903 17.5588 79.3365 13.3684C75.0826 9.17686 70.1284 5.88636 64.6102 3.58772C58.8957 1.20652 52.8268 0 46.5736 0C40.3203 0 34.2526 1.20652 28.5381 3.58772C23.02 5.88636 18.0645 9.17686 13.8107 13.3684C9.55685 17.5588 6.21651 22.4391 3.88306 27.875C1.4658 33.5042 0.239809 39.4814 0.239809 45.6425V45.6815L0.21826 46.0624C0.0566303 48.8812 0.142832 51.7082 0.475669 54.5116L0.619341 55.7228L0.91985 60.7317C1.10902 63.8783 2.68341 66.7867 5.22877 68.6962C6.63914 70.0819 7.61729 71.8369 8.04711 73.7534L8.60264 76.2289C9.20366 78.905 11.4102 80.943 14.1591 81.3605C16.4937 81.7155 18.4692 83.2475 19.3672 85.3999L19.6557 86.0922L20.1394 87.1053C21.8096 90.6058 25.63 92.5954 29.5067 91.9845L30.3232 91.8559C34.2574 91.2367 38.0431 93.6073 39.1422 97.3802C40.2018 101.016 43.3661 102.936 46.5736 103C49.781 102.936 52.9454 101.016 54.0049 97.3802C55.104 93.6073 58.8898 91.2367 62.8239 91.8559L63.6405 91.9845C67.5172 92.5954 71.3376 90.6058 73.0078 87.1053L73.4915 86.0922L73.78 85.3999C74.678 83.2475 76.6534 81.7155 78.9881 81.3605C81.737 80.943 83.9435 78.905 84.5445 76.2289L85.1001 73.7534C85.5299 71.8369 86.508 70.0819 87.9184 68.6962C90.4638 66.7867 92.0381 63.8783 92.2273 60.7317L92.5278 55.7228L92.6715 54.5116C93.0043 51.7082 93.0905 48.8812 92.9289 46.0624L92.9074 45.6815ZM74.2577 72.9125C66.8623 80.1964 57.0316 84.2087 46.5736 84.2087C36.1156 84.2087 26.2849 80.1964 18.8906 72.9125C11.4964 65.6285 7.42334 55.9434 7.42334 45.6425C7.42334 35.3417 11.4964 25.6554 18.8906 18.3714C26.2849 11.0875 36.1168 7.07636 46.5736 7.07636C57.0304 7.07636 66.8623 11.0875 74.2577 18.3714C81.652 25.6554 85.7238 35.3405 85.7238 45.6425C85.7238 55.9445 81.652 65.6285 74.2577 72.9125Z" fill="url(#paint6_linear_753_24)"/>
<path d="M45.435 41.2682C45.5678 41.635 45.9246 41.8885 46.3245 41.8885H46.8321C47.232 41.8885 47.5888 41.6444 47.7217 41.2682L55.7996 18.5613C56.8232 15.6942 55.0609 12.5924 52.045 11.9543C48.4425 11.1936 44.7142 11.1936 41.1117 11.9543C38.0958 12.5924 36.3346 15.6954 37.3571 18.5613L45.435 41.2682ZM45.6313 31.182C46.1473 30.7279 46.9303 30.7279 47.4547 31.182C47.8905 31.5582 48.0414 32.1786 47.8199 32.7117L46.8417 35.107C46.7352 35.3688 46.3616 35.3688 46.2551 35.107L45.2769 32.7117C45.0542 32.1786 45.2063 31.5665 45.6421 31.182H45.6337H45.6313Z" fill="url(#paint7_linear_753_24)"/>
<path d="M20.6146 32.9204L42.6238 43.3474C42.9794 43.522 43.4152 43.4441 43.6917 43.1729L44.0473 42.8144C44.3323 42.5348 44.4029 42.115 44.2257 41.7564L33.648 20.0721C32.313 17.3359 28.8446 16.3664 26.2549 18.0176C23.1588 19.9837 20.5261 22.5795 18.5242 25.6306C16.8517 28.1828 17.8298 31.6007 20.6063 32.9204H20.6146ZM35.5336 36.0411C35.5779 35.3594 36.1299 34.8169 36.8231 34.7732C37.4097 34.7379 37.9533 35.0705 38.1748 35.5953L39.1984 37.9729C39.3146 38.2348 39.0476 38.4978 38.7806 38.3834L36.361 37.3691C35.827 37.1415 35.4893 36.6084 35.5253 36.0317L35.5336 36.0411Z" fill="url(#paint8_linear_753_24)"/>
<path d="M156.843 62.9474C156.843 66.4536 155.977 69.0304 154.246 70.6779C152.557 72.2831 149.876 73.0857 146.203 73.0857H126.38C122.707 73.0857 120.005 72.2831 118.274 70.6779C116.585 69.0304 115.74 66.4536 115.74 62.9474V56.4842C115.74 55.5971 116.205 55.1535 117.134 55.1535H124.544C125.515 55.1535 126 55.5971 126 56.4842V60.2861C126 61.2154 126.064 61.9758 126.19 62.5672C126.359 63.1586 126.634 63.6233 127.014 63.9612C127.394 64.2569 127.921 64.4681 128.597 64.5949C129.315 64.7216 130.222 64.785 131.32 64.785H141.01C142.192 64.785 143.142 64.7216 143.86 64.5949C144.578 64.4681 145.126 64.2358 145.506 63.8979C145.929 63.5599 146.203 63.0741 146.33 62.4405C146.499 61.8068 146.583 61.0042 146.583 60.0326V30.0611C146.583 29.174 147.069 28.7305 148.04 28.7305H155.449C156.378 28.7305 156.843 29.174 156.843 30.0611V62.9474Z" fill="white"/>
<path d="M175.73 60.0326C175.73 61.0042 175.794 61.8068 175.92 62.4405C176.089 63.0741 176.364 63.5599 176.744 63.8979C177.166 64.2358 177.736 64.4681 178.454 64.5949C179.214 64.7216 180.185 64.785 181.367 64.785H194.54C195.722 64.785 196.672 64.7216 197.39 64.5949C198.15 64.4681 198.741 64.2358 199.163 63.8979C199.585 63.5599 199.86 63.0741 199.986 62.4405C200.155 61.8068 200.24 61.0042 200.24 60.0326V30.0611C200.24 29.174 200.704 28.7305 201.633 28.7305H209.043C210.014 28.7305 210.5 29.174 210.5 30.0611V62.9474C210.5 66.4536 209.655 69.0304 207.966 70.6779C206.277 72.2831 203.596 73.0857 199.923 73.0857H176.11C172.437 73.0857 169.735 72.2831 168.004 70.6779C166.315 69.0304 165.471 66.4536 165.471 62.9474V30.0611C165.471 29.174 165.935 28.7305 166.864 28.7305H174.274C175.245 28.7305 175.73 29.174 175.73 30.0611V60.0326Z" fill="white"/>
<path d="M229.545 71.7551C229.545 72.6422 229.059 73.0857 228.088 73.0857H220.679C219.75 73.0857 219.285 72.6422 219.285 71.7551V30.0611C219.285 29.174 219.75 28.7305 220.679 28.7305H228.088C229.059 28.7305 229.545 29.174 229.545 30.0611V71.7551Z" fill="white"/>
<path d="M281.011 58.3851C281.94 58.3851 282.404 58.8287 282.404 59.7158V63.2009C282.404 65.0173 282.214 66.5592 281.834 67.8265C281.496 69.0938 280.905 70.1287 280.061 70.9313C279.259 71.6917 278.203 72.2409 276.894 72.5788C275.586 72.9168 273.981 73.0857 272.081 73.0857H248.648C245.017 73.0857 242.336 72.2831 240.605 70.6779C238.874 69.0304 238.009 66.4536 238.009 62.9474V38.8688C238.009 35.3626 238.874 32.8069 240.605 31.2017C242.336 29.5542 245.017 28.7305 248.648 28.7305H272.081C273.981 28.7305 275.586 28.8994 276.894 29.2374C278.203 29.5753 279.259 30.1456 280.061 30.9482C280.905 31.7086 281.496 32.7224 281.834 33.9897C282.214 35.257 282.404 36.7989 282.404 38.6154V42.1004C282.404 42.9875 281.94 43.4311 281.011 43.4311H273.854C272.926 43.4311 272.461 42.9875 272.461 42.1004V39.946C272.461 38.0028 271.427 37.0312 269.358 37.0312H253.905C252.723 37.0312 251.752 37.0946 250.992 37.2213C250.274 37.3481 249.704 37.6015 249.282 37.9817C248.902 38.3197 248.627 38.8055 248.458 39.4391C248.332 40.0305 248.268 40.812 248.268 41.7836V60.0326C248.268 61.0042 248.332 61.8068 248.458 62.4405C248.627 63.0741 248.902 63.5599 249.282 63.8979C249.704 64.2358 250.274 64.4681 250.992 64.5949C251.752 64.7216 252.723 64.785 253.905 64.785H269.358C271.427 64.785 272.461 63.8134 272.461 61.8702V59.7158C272.461 58.8287 272.926 58.3851 273.854 58.3851H281.011Z" fill="white"/>
<path d="M331.587 28.7305C332.516 28.7305 332.981 29.174 332.981 30.0611V35.7006C332.981 36.5877 332.516 37.0312 331.587 37.0312H300.175V46.6627H326.584C327.555 46.6627 328.041 47.1062 328.041 47.9933V53.4427C328.041 54.3298 327.555 54.7734 326.584 54.7734H300.175V64.785H331.587C332.516 64.785 332.981 65.2285 332.981 66.1156V71.7551C332.981 72.6422 332.516 73.0857 331.587 73.0857H291.308C290.379 73.0857 289.915 72.6422 289.915 71.7551V30.0611C289.915 29.174 290.379 28.7305 291.308 28.7305H331.587Z" fill="white"/>
<defs>
<linearGradient id="paint0_linear_753_24" x1="105.081" y1="-18.54" x2="-49.4837" y2="23.2059" gradientUnits="userSpaceOnUse">
<stop stop-color="#D188FF"/>
<stop offset="1" stop-color="#831FD8"/>
</linearGradient>
<linearGradient id="paint1_linear_753_24" x1="105.081" y1="-18.54" x2="-49.4837" y2="23.2059" gradientUnits="userSpaceOnUse">
<stop stop-color="#D188FF"/>
<stop offset="1" stop-color="#831FD8"/>
</linearGradient>
<linearGradient id="paint2_linear_753_24" x1="105.081" y1="-18.54" x2="-49.4837" y2="23.2059" gradientUnits="userSpaceOnUse">
<stop stop-color="#D188FF"/>
<stop offset="1" stop-color="#831FD8"/>
</linearGradient>
<linearGradient id="paint3_linear_753_24" x1="105.081" y1="-18.54" x2="-49.4837" y2="23.2059" gradientUnits="userSpaceOnUse">
<stop stop-color="#D188FF"/>
<stop offset="1" stop-color="#831FD8"/>
</linearGradient>
<linearGradient id="paint4_linear_753_24" x1="105.081" y1="-18.54" x2="-49.4837" y2="23.2059" gradientUnits="userSpaceOnUse">
<stop stop-color="#D188FF"/>
<stop offset="1" stop-color="#831FD8"/>
</linearGradient>
<linearGradient id="paint5_linear_753_24" x1="105.081" y1="-18.54" x2="-49.4837" y2="23.2059" gradientUnits="userSpaceOnUse">
<stop stop-color="#D188FF"/>
<stop offset="1" stop-color="#831FD8"/>
</linearGradient>
<linearGradient id="paint6_linear_753_24" x1="105.081" y1="-18.54" x2="-49.4837" y2="23.2059" gradientUnits="userSpaceOnUse">
<stop stop-color="#D188FF"/>
<stop offset="1" stop-color="#831FD8"/>
</linearGradient>
<linearGradient id="paint7_linear_753_24" x1="105.081" y1="-18.54" x2="-49.4837" y2="23.2059" gradientUnits="userSpaceOnUse">
<stop stop-color="#D188FF"/>
<stop offset="1" stop-color="#831FD8"/>
</linearGradient>
<linearGradient id="paint8_linear_753_24" x1="105.081" y1="-18.54" x2="-49.4837" y2="23.2059" gradientUnits="userSpaceOnUse">
<stop stop-color="#D188FF"/>
<stop offset="1" stop-color="#831FD8"/>
</linearGradient>
</defs>
</svg>
