<svg width="81" height="32" viewBox="0 0 81 32" fill="none" xmlns="http://www.w3.org/2000/svg">
<path d="M36.2931 10.1643V6.45464C36.2931 6.30262 36.3712 6.17383 36.538 6.17383H37.9674C38.0899 6.17383 38.2039 6.23928 38.2039 6.44619V15.848C38.2039 16.0212 38.1321 16.1204 37.9442 16.1204H36.5359C36.3776 16.1204 36.291 16.0191 36.291 15.848V11.8956H34.7096V15.848C34.7096 16.0212 34.6378 16.1204 34.4731 16.1204H33.0353C32.8706 16.1204 32.7988 16.0191 32.7988 15.848V6.45464C32.7988 6.28151 32.8769 6.17383 33.0353 6.17383H34.4731C34.6378 6.17383 34.7096 6.28151 34.7096 6.45464V10.1643H36.291H36.2931Z" fill="white"/>
<path d="M44.475 6.17383C44.6333 6.17383 44.7051 6.3174 44.7051 6.46097V13.7852C44.7051 15.1661 43.4552 16.2787 42.0173 16.2787C40.5795 16.2787 39.3359 15.164 39.3359 13.7852V6.45464C39.3359 6.30262 39.4225 6.17383 39.5238 6.17383H41.0398C41.2129 6.17383 41.2552 6.30262 41.2552 6.45464V13.6776C41.2552 14.1315 41.536 14.5474 42.0237 14.5474C42.5114 14.5474 42.7859 14.1315 42.7859 13.6776V6.46097C42.7859 6.31107 42.864 6.17383 43.016 6.17383H44.475Z" fill="white"/>
<path d="M47.5849 15.85C47.5849 16.0231 47.5195 16.1223 47.3843 16.1223H46.0267C45.8895 16.1223 45.8262 16.021 45.8262 15.85V6.44181C45.8262 6.27712 45.9043 6.17578 46.0352 6.17578H47.8256C47.984 6.17578 48.0135 6.26234 48.0494 6.42703L49.3078 11.3803L49.3585 11.7624L49.4239 11.3887L50.6971 6.42914C50.7266 6.26446 50.7541 6.17789 50.9061 6.17789H52.7113C52.8401 6.17789 52.9119 6.27924 52.9119 6.44392L52.9182 15.8521C52.9182 16.0252 52.8527 16.1245 52.7092 16.1245H51.3579C51.2207 16.1245 51.1489 16.0231 51.1489 15.8521L51.1784 10.3753L51.2207 9.83686L51.2059 9.92343L50.127 14.4438C50.0763 14.6381 50.0489 14.6887 49.8905 14.6887H48.856C48.6976 14.6887 48.668 14.6317 48.611 14.4438L47.5258 9.89387L47.568 10.3753L47.5891 15.8521L47.5849 15.85Z" fill="white"/>
<path d="M54.0705 6.45464C54.0705 6.28151 54.1486 6.17383 54.3069 6.17383H55.7448C55.9095 6.17383 55.9812 6.28151 55.9812 6.45464V14.3891H58.4114C58.5402 14.3891 58.612 14.4609 58.612 14.634V15.8628C58.612 16.0359 58.5402 16.1225 58.4114 16.1225H54.3133C54.1486 16.1225 54.0684 16.0212 54.0684 15.8501V6.45675L54.0705 6.45464Z" fill="white"/>
<path d="M65.0186 15.8563C65.0545 16.021 65.0122 16.1223 64.875 16.1223H63.4372C63.2936 16.1223 63.1711 16.0569 63.1416 15.8859L62.9537 14.6845H61.3723L61.1928 15.8859C61.1633 16.059 61.0429 16.1223 60.9057 16.1223H59.4615C59.3243 16.1223 59.282 16.021 59.3243 15.85L61.273 6.42703C61.3153 6.2539 61.4018 6.17578 61.5454 6.17578H62.789C62.9389 6.17578 63.0255 6.25601 63.0614 6.42703L65.0165 15.8584L65.0186 15.8563ZM61.6045 13.1601H62.7256L62.2443 9.96776L62.1661 9.12745L62.0944 9.96776L61.6066 13.1601H61.6045Z" fill="white"/>
<path d="M36.6326 18.2384C36.6537 18.0737 36.7825 18.002 36.9198 18.002H38.3639C38.5012 18.002 38.537 18.1096 38.5012 18.268L36.5038 27.6994C36.4616 27.8725 36.375 27.9506 36.2315 27.9506H35.0892C34.9393 27.9506 34.8527 27.8725 34.8084 27.6994L32.8111 18.2828C32.7752 18.1096 32.8174 18.002 32.9483 18.002H34.3925C34.536 18.002 34.6585 18.0737 34.6796 18.2384L35.5854 24.0109L35.6572 24.8512L35.7353 24.0109L36.6347 18.2384H36.6326Z" fill="white"/>
<path d="M43.353 23.5376C43.353 23.7107 43.2601 23.7825 43.1229 23.7825H41.0242V26.219H43.6908C43.8049 26.219 43.8999 26.2971 43.8999 26.4639V27.7075C43.8999 27.8722 43.807 27.9524 43.6908 27.9524H39.3562C39.1916 27.9524 39.1113 27.8511 39.1113 27.6801V18.2867C39.1113 18.1135 39.2042 18.0059 39.3562 18.0059H43.655C43.7837 18.0059 43.8555 18.0924 43.8555 18.2719V19.4944C43.8555 19.6675 43.7837 19.7541 43.655 19.7541H41.0242V22.0618H43.1229C43.2453 22.0618 43.353 22.1335 43.353 22.313V23.5418V23.5376Z" fill="white"/>
<path d="M48.437 23.5527L48.6165 24.4015L48.587 23.6245L48.5004 18.2849C48.5004 18.1329 48.5785 18.0041 48.7516 18.0041H50.0459C50.1684 18.0041 50.2824 18.0695 50.2824 18.2764V27.6783C50.2824 27.8514 50.1895 27.9506 50.0163 27.9506H48.7157C48.587 27.9506 48.4497 27.8852 48.3927 27.7205L46.6741 22.6533L46.4946 21.9692L46.5368 22.6807L46.6023 27.6762C46.6086 27.8493 46.5221 27.9485 46.3574 27.9485H45.0568C44.8921 27.9485 44.8203 27.8472 44.8203 27.6762V18.2828C44.8203 18.1096 44.9132 18.002 45.0652 18.002H46.3595C46.4883 18.002 46.6255 18.0822 46.6762 18.2469L48.437 23.5506V23.5527Z" fill="white"/>
<path d="M56.143 19.4905C56.143 19.6636 56.0565 19.7501 55.934 19.7501H54.5975V27.6994C54.5975 27.8641 54.5046 27.9506 54.3885 27.9506H52.8873C52.7649 27.9506 52.6783 27.8641 52.6783 27.6994V19.7501H51.3418C51.2194 19.7501 51.1328 19.6636 51.1328 19.4905V18.268C51.1328 18.0949 51.2194 18.002 51.3418 18.002H55.9361C56.0586 18.002 56.1452 18.0885 56.1452 18.2616V19.4905H56.143Z" fill="white"/>
<path d="M62.0921 18.002C62.2505 18.002 62.3223 18.1455 62.3223 18.2891V25.6134C62.3223 26.9942 61.0724 28.1069 59.6345 28.1069C58.1967 28.1069 56.9531 26.9921 56.9531 25.6134V18.2828C56.9531 18.1307 57.0397 18.002 57.141 18.002H58.657C58.8301 18.002 58.8723 18.1307 58.8723 18.2828V25.5057C58.8723 25.9596 59.1531 26.3756 59.6409 26.3756C60.1286 26.3756 60.4031 25.9596 60.4031 25.5057V18.2891C60.4031 18.1392 60.4833 18.002 60.6332 18.002H62.0921Z" fill="white"/>
<path d="M65.988 24.0763H65.3483V27.6846C65.3483 27.8493 65.2702 27.9506 65.1118 27.9506H63.674C63.5093 27.9506 63.4375 27.8493 63.4375 27.6846V18.2828C63.4375 18.1096 63.5304 18.002 63.6824 18.002H66.2203C67.7003 18.002 68.8151 19.1674 68.8151 20.5968V21.4223C68.8151 22.4653 68.3337 23.1895 67.6876 23.6139L68.9101 27.6677C68.946 27.7965 68.8953 27.9485 68.7581 27.9485H67.2569C67.1134 27.9485 67.0627 27.9063 67.0268 27.7184L65.9922 24.0742L65.988 24.0763ZM65.3483 19.7501V22.4463H66.0746C66.5919 22.4463 66.8938 22.079 66.8938 21.5912V20.5989C66.8938 20.0816 66.5623 19.7501 66.0661 19.7501H65.3483Z" fill="white"/>
<path d="M74.1245 23.5376C74.1245 23.7107 74.0316 23.7825 73.8944 23.7825H71.7957V26.219H74.4623C74.5763 26.219 74.6714 26.2971 74.6714 26.4639V27.7075C74.6714 27.8722 74.5785 27.9524 74.4623 27.9524H70.1277C69.963 27.9524 69.8828 27.8511 69.8828 27.6801V18.2867C69.8828 18.1135 69.9757 18.0059 70.1277 18.0059H74.4264C74.5552 18.0059 74.627 18.0924 74.627 18.2719V19.4944C74.627 19.6675 74.5552 19.7541 74.4264 19.7541H71.7957V22.0618H73.8944C74.0168 22.0618 74.1245 22.1335 74.1245 22.313V23.5418V23.5376Z" fill="white"/>
<path d="M77.2557 25.4208C77.2557 26.1386 77.7076 26.3687 78.0749 26.3687C78.5268 26.3687 78.8941 26.0373 78.8941 25.5137C78.8941 24.8169 78.5204 24.4939 77.6358 23.7739C76.1346 22.5514 75.459 22.0785 75.459 20.4316C75.459 18.5631 77.0045 17.8516 78.0095 17.8516C79.498 17.8516 80.5621 18.8861 80.5621 20.476V20.8856C80.5621 21.0862 80.5114 21.1579 80.2813 21.1579H78.9955C78.816 21.1579 78.7865 21.0862 78.7865 20.8856V20.4823C78.7865 19.9861 78.5268 19.5765 78.0095 19.5765C77.6506 19.5765 77.2325 19.8278 77.2325 20.4823C77.2325 21.1368 77.6569 21.4746 78.2966 21.9708C79.6416 23.0138 80.712 23.7971 80.712 25.615C80.712 26.9599 79.6479 28.1085 78.0602 28.1085C76.3268 28.1085 75.459 26.8797 75.459 25.5284V25.1463C75.459 24.9014 75.5012 24.8021 75.7039 24.8021H77.0129C77.2135 24.8021 77.2579 24.8824 77.2579 25.0977V25.4208H77.2557Z" fill="white"/>
<path d="M27.9806 27.7574C29.4966 23.7268 28.6541 19.2782 25.5441 14.8887C25.0965 14.2595 24.6362 13.6747 24.1802 13.1384L25.0944 11.1326L25.4956 10.2501L26.3232 8.4322L25.5779 7.38708L25.9073 6.665C26.1965 6.03159 26.8679 5.69167 27.5267 5.79512L27.9384 4.89358C26.7835 4.58321 25.5378 5.1406 25.0268 6.26384L24.9297 6.47498L22.964 3.71967L19.5943 4.04481L19.6915 3.83368C20.2024 2.71044 19.8055 1.40351 18.8131 0.736328L18.4014 1.63788C18.9103 2.06648 19.0961 2.79701 18.8068 3.43041L18.4774 4.15249L17.2001 4.27495L16.3724 6.09282L15.9713 6.97537L15.057 8.98115C14.354 8.98959 13.6108 9.02549 12.8422 9.1015C7.48786 9.63567 3.57764 11.9201 1.53385 15.71C0.218484 18.1486 0.0326859 20.0193 0.984904 21.265C1.31639 21.6999 1.76821 22.0251 2.29394 22.2636C3.14904 22.6521 4.19627 22.8126 5.23716 22.8506L8.53086 27.4681L10.7393 30.5655L14.5271 30.1981L20.1686 29.6513C20.8801 30.4135 21.6888 31.0975 22.5439 31.486C23.0675 31.7246 23.6101 31.8534 24.157 31.8175C25.7215 31.7183 27.0094 30.3522 27.9869 27.7574H27.9806ZM16.8496 7.37863L17.2507 6.49609L17.8461 5.18916L18.0087 5.17439L19.1235 5.06671L22.4932 4.74156L24.4589 7.49687L25.1092 8.40897L25.2042 8.54199L24.6088 9.84891L24.2076 10.7315L23.4729 12.3424C22.3475 11.1178 21.3362 10.2374 20.7957 9.79191C20.5571 9.59555 20.4093 9.48365 20.384 9.46465L20.3523 9.43931L20.3122 9.43087C20.2826 9.42453 20.1011 9.38653 19.7949 9.33586C19.1045 9.21973 17.7765 9.03393 16.1127 8.98959L16.8475 7.37863H16.8496ZM17.0607 22.2552L17.255 24.1491L13.4883 24.5165L11.2925 21.4339L12.8486 20.3381L14.4004 22.517L17.0628 22.2573L17.0607 22.2552ZM1.75132 20.6738C1.05247 19.7575 1.26571 18.2436 2.38473 16.1703C4.29339 12.6338 7.83412 10.5816 12.9119 10.0706C13.6657 9.9946 14.3962 9.96081 15.0887 9.95448C15.5068 9.95026 15.91 9.95659 16.2922 9.97137C17.616 10.0199 18.7076 10.1529 19.379 10.2564L18.2557 12.7225L17.7912 13.7422L16.5012 16.5736L13.6171 18.6068L12.8697 19.1325L10.7288 20.6421L9.56754 21.4613C9.47464 21.4824 9.37329 21.5036 9.26562 21.5247C9.19805 21.5373 9.12838 21.5521 9.05659 21.5648C8.21416 21.721 7.03814 21.8752 5.86001 21.8857C4.17515 21.9026 2.48396 21.6345 1.75132 20.6738ZM14.1344 28.3296L11.6388 28.5724L10.1841 26.5307L7.50053 22.7619C8.4992 22.6606 9.30784 22.5065 9.6731 22.4304L12.5804 26.5053L17.5632 26.024C17.7448 26.3512 18.1607 27.0627 18.7392 27.8819L14.1344 28.3317V28.3296ZM24.0894 30.8484C22.8838 30.9265 21.5706 29.8265 20.479 28.5428C19.7147 27.6455 19.0602 26.6595 18.6231 25.9205C18.5851 25.8572 18.5513 25.7959 18.5175 25.7368C18.4627 25.6418 18.412 25.551 18.3676 25.4666L18.222 24.052L17.9559 21.4466L17.863 20.5366L17.5041 17.0254L18.7941 14.1941L19.2586 13.1743L20.3819 10.7082C20.9013 11.1474 21.7184 11.8843 22.6241 12.8513C22.8859 13.1321 23.1562 13.4319 23.4264 13.7486C23.8762 14.2743 24.3301 14.8486 24.7671 15.4672C27.7125 19.6329 28.4894 23.6529 27.0748 27.4132C26.2451 29.6175 25.2422 30.7724 24.0915 30.8463L24.0894 30.8484Z" fill="white"/>
</svg>
