<?xml version="1.0" encoding="utf-8"?>
<!-- Generator: Adobe Illustrator 25.0.0, SVG Export Plug-In . SVG Version: 6.00 Build 0)  -->
<svg version="1.1" id="Layer_1" xmlns="http://www.w3.org/2000/svg" xmlns:xlink="http://www.w3.org/1999/xlink" x="0px" y="0px"
	 viewBox="0 0 541 144" style="enable-background:new 0 0 541 144;" xml:space="preserve">
<style type="text/css">
	.st0{fill-rule:evenodd;clip-rule:evenodd;fill:url(#SVGID_1_);}
	.st1{fill:#FFFFFF;}
	.st2{fill:#9E9E9E;}
</style>
<g>
	
		<linearGradient id="SVGID_1_" gradientUnits="userSpaceOnUse" x1="150.1595" y1="146" x2="150.1595" y2="2" gradientTransform="matrix(1 0 0 -1 0 146)">
		<stop  offset="0" style="stop-color:#FFFFFF;stop-opacity:0"/>
		<stop  offset="0.4879" style="stop-color:#FFFFFF"/>
		<stop  offset="1" style="stop-color:#FFFFFF;stop-opacity:0"/>
	</linearGradient>
	<path class="st0" d="M149.1,144V0l2.1,0v144H149.1z"/>
	<path class="st1" d="M58.6,130c-15.5,0-30.4-6.2-41.4-17.1C6.2,101.9,0,87,0,71.5C0,56,6.2,41.1,17.2,30.2C28.2,19.2,43,13,58.6,13
		c15.5,0,30.4,6.2,41.4,17.2c11,11,17.2,25.8,17.2,41.4c0,15.5-6.2,30.4-17.2,41.4C89,123.9,74.1,130,58.6,130z M58.6,17.5
		c-14.3,0-28.1,5.7-38.2,15.8S4.5,57.2,4.5,71.5c0,14.3,5.7,28.1,15.9,38.2c10.1,10.1,23.9,15.8,38.2,15.8s28.1-5.7,38.2-15.8
		c10.1-10.1,15.8-23.9,15.9-38.2c0-14.3-5.7-28.1-15.9-38.2S72.9,17.5,58.6,17.5z"/>
	<path class="st1" d="M64.7,120c-12.9,0-25.2-5.1-34.3-14.2c-9.1-9.1-14.2-21.4-14.2-34.3c0-12.9,5.1-25.2,14.2-34.3
		C39.5,28.2,51.8,23,64.7,23c12.9,0,25.2,5.1,34.3,14.2c9.1,9.1,14.2,21.4,14.2,34.3c0,12.9-5.1,25.2-14.2,34.3
		C89.9,114.9,77.6,120,64.7,120z M64.7,26.5c-11.9,0-23.4,4.8-31.8,13.2c-8.4,8.4-13.2,19.9-13.2,31.8c0,11.9,4.8,23.4,13.2,31.8
		c8.4,8.4,19.9,13.2,31.8,13.2c11.9,0,23.4-4.8,31.8-13.2c8.4-8.4,13.2-19.9,13.2-31.8c0-11.9-4.8-23.4-13.2-31.8
		C88.1,31.3,76.6,26.6,64.7,26.5L64.7,26.5z"/>
	<path class="st1" d="M72.3,110c-10.2,0-20-4.1-27.2-11.3c-7.2-7.2-11.3-17-11.3-27.2c0-10.2,4.1-20,11.3-27.2
		c7.2-7.2,17-11.3,27.2-11.3c10.2,0,20,4.1,27.2,11.3c7.2,7.2,11.3,17,11.3,27.2c0,10.2-4.1,20-11.3,27.2
		C92.3,105.9,82.5,110,72.3,110z M72.3,35.6c-9.5,0-18.7,3.8-25.4,10.5C40.1,52.8,36.3,62,36.3,71.5c0,9.5,3.8,18.7,10.6,25.4
		c6.7,6.7,15.9,10.5,25.4,10.5c9.5,0,18.7-3.8,25.4-10.5c6.7-6.7,10.5-15.9,10.6-25.4c0-9.5-3.8-18.7-10.6-25.4
		C91,39.4,81.8,35.6,72.3,35.6z"/>
	<path class="st1" d="M81.3,99.9c-7.5,0-14.8-3-20.1-8.3s-8.3-12.5-8.3-20.1c0-7.5,3-14.8,8.3-20.1s12.6-8.3,20.1-8.3
		c7.5,0,14.8,3,20.1,8.3c5.3,5.3,8.3,12.5,8.3,20.1c0,7.5-3,14.8-8.3,20.1C96,96.9,88.8,99.9,81.3,99.9z M81.3,44.6
		c-7.1,0-14,2.8-19,7.9c-5,5-7.9,11.9-7.9,19c0,7.1,2.9,14,7.9,19c5,5,11.9,7.9,19,7.9c7.1,0,14-2.8,19-7.9c5-5,7.9-11.9,7.9-19
		c0-7.1-2.9-14-7.9-19C95.3,47.5,88.4,44.6,81.3,44.6z"/>
	<path class="st2" d="M210.7,24.3c0.2,0,0.3,0.1,0.2,0.3l-7,21.1c-0.1,0.2-0.2,0.2-0.3,0.2h-0.4c-0.2,0-0.3-0.1-0.3-0.2l-5.8-16.7
		l-5.8,16.7c-0.1,0.2-0.2,0.2-0.3,0.2h-0.4c-0.2,0-0.3-0.1-0.3-0.2l-7-21.1c-0.1-0.2,0-0.3,0.2-0.3h1.5c0.2,0,0.3,0.1,0.3,0.2
		l5.7,17.8l5.7-16.6c0.1-0.1,0.2-0.2,0.3-0.2h0.3c0.2,0,0.3,0.1,0.3,0.2l5.8,16.6l5.6-17.8c0.1-0.2,0.2-0.2,0.3-0.2H210.7z"/>
	<path class="st2" d="M230.6,24.1c5.6,0,10.6,4.2,10.6,10.9s-5,10.9-10.6,10.9c-5.6,0-10.6-4.2-10.6-10.9S225.1,24.1,230.6,24.1z
		 M230.6,44.3c4.8,0,8.6-3.7,8.6-9.3s-3.8-9.3-8.6-9.3c-4.9,0-8.6,3.7-8.6,9.3S225.8,44.3,230.6,44.3z"/>
	<path class="st2" d="M267.9,45.1c0.2,0.3,0,0.6-0.3,0.6h-1.3c-0.1,0-0.2,0-0.3-0.2l-5.4-8.2c-0.2,0-0.4,0-0.6,0h-5.8v8.1
		c0,0.1-0.1,0.3-0.3,0.3h-1.3c-0.1,0-0.3-0.1-0.3-0.3V24.6c0-0.1,0.1-0.3,0.3-0.3h1.3h6c5.5,0,8,2.9,8,6.5c0,2.9-1.7,5.4-5.4,6.2
		L267.9,45.1z M259.6,35.6c4.7,0,6.4-2.2,6.4-4.8s-1.7-4.8-6.4-4.8h-5.4v9.7H259.6z"/>
	<path class="st2" d="M299.5,24.2c0.1-0.2,0.2-0.2,0.4-0.2h0.4c0.2,0,0.3,0.1,0.3,0.3v21.1c0,0.2-0.1,0.3-0.3,0.3H299
		c-0.2,0-0.3-0.1-0.3-0.3V28.3L290,41.7c-0.1,0.2-0.3,0.2-0.4,0l-8.7-13.3v17.1c0,0.2-0.1,0.3-0.3,0.3h-1.3c-0.2,0-0.3-0.1-0.3-0.3
		V24.3c0-0.2,0.1-0.3,0.3-0.3h0.4c0.1,0,0.3,0.1,0.4,0.2l9.7,14.5L299.5,24.2z"/>
	<path class="st2" d="M329.7,24.3c0.1,0,0.3,0.1,0.3,0.3v20.7c0,0.1-0.1,0.3-0.3,0.3h-1.3c-0.1,0-0.3-0.1-0.3-0.3v-10h-14.3v10
		c0,0.1-0.1,0.3-0.3,0.3h-1.3c-0.1,0-0.3-0.1-0.3-0.3V24.6c0-0.1,0.1-0.3,0.3-0.3h1.3c0.1,0,0.3,0.1,0.3,0.3v9.1h14.3v-9.1
		c0-0.1,0.1-0.3,0.3-0.3H329.7z"/>
	<path class="st2" d="M351.7,24.1c5.6,0,10.6,4.2,10.6,10.9s-5,10.9-10.6,10.9c-5.6,0-10.6-4.2-10.6-10.9S346.2,24.1,351.7,24.1z
		 M351.7,44.3c4.8,0,8.6-3.7,8.6-9.3s-3.8-9.3-8.6-9.3c-4.9,0-8.6,3.7-8.6,9.3S346.9,44.3,351.7,44.3z"/>
	<path class="st2" d="M387.4,44c0.2,0,0.3,0.1,0.3,0.3v1c0,0.2-0.1,0.3-0.3,0.3h-12.9h-0.8c-0.1,0-0.3-0.1-0.3-0.3V24.6
		c0-0.1,0.1-0.3,0.3-0.3h1.3c0.1,0,0.3,0.1,0.3,0.3V44H387.4z"/>
	<path class="st2" d="M412.9,44c0.2,0,0.3,0.1,0.3,0.3v1c0,0.2-0.1,0.3-0.3,0.3H399h-0.8c-0.1,0-0.3-0.1-0.3-0.3V24.6
		c0-0.1,0.1-0.3,0.3-0.3h1.3h13.1c0.2,0,0.3,0.1,0.3,0.3v1c0,0.2-0.1,0.3-0.3,0.3h-12.8v7.8h11.4c0.2,0,0.3,0.1,0.3,0.3v1
		c0,0.2-0.1,0.3-0.3,0.3h-11.4V44H412.9z"/>
	<path class="st1" d="M203.2,76.7c0.3,0.1,0.5,0.4,0.3,0.8c-2,4-5.3,5.5-9.1,5.5c-5.8,0-11.2-4.2-11.2-11s5.4-11,11.2-11
		c3.8,0,7.1,1.5,9.1,5.5c0.2,0.4,0,0.6-0.3,0.8l-2.3,1.1c-0.3,0.1-0.6,0.1-0.8-0.3c-1.3-2.6-3.4-3.7-5.8-3.7c-4.1,0-6.9,3.1-6.9,7.6
		s2.8,7.6,6.9,7.6c2.3,0,4.4-1.1,5.8-3.7c0.2-0.4,0.5-0.4,0.8-0.3L203.2,76.7z"/>
	<path class="st1" d="M229.2,81.5c0.4,0.6,0,1.1-0.6,1.1h-3c-0.2,0-0.3-0.1-0.4-0.2l-4.6-7.2H216v6.9c0,0.3-0.3,0.5-0.5,0.5h-3
		c-0.3,0-0.5-0.3-0.5-0.5V61.9c0-0.3,0.3-0.5,0.5-0.5h3h5.5c5.5,0,8.5,2.9,8.5,6.9c0,2.9-1.6,5.3-4.7,6.3L229.2,81.5z M216,71.8h4.1
		c3.8,0,5-1.4,5-3.6c0-2.1-1.3-3.6-5-3.6H216V71.8z"/>
	<path class="st1" d="M248.4,61c5.8,0,11.2,4.2,11.2,11s-5.4,11-11.2,11c-5.8,0-11.2-4.2-11.2-11S242.6,61,248.4,61z M248.4,79.6
		c4.1,0,6.9-3.1,6.9-7.6s-2.8-7.6-6.9-7.6c-4.1,0-6.9,3.1-6.9,7.6S244.3,79.6,248.4,79.6z"/>
	<path class="st1" d="M272.4,67c0,4.1,12.1,2,12.1,9.5c0,4.4-4.1,6.4-8.7,6.4c-3.3,0-5.7-1-7.7-2.2c-0.3-0.2-0.4-0.4-0.3-0.8l1-2.1
		c0.1-0.3,0.4-0.4,0.8-0.3c1.8,1,3.4,1.9,6.4,1.9c2.7,0,4.3-0.8,4.3-2.6c0-4.8-11.9-2.2-11.9-9.7c0-3.5,2.9-6.4,8.3-6.4
		c3.5,0,5.6,1.1,7.1,1.9c0.2,0.1,0.4,0.4,0.3,0.8l-1,2.2c-0.1,0.3-0.4,0.4-0.8,0.2c-0.9-0.6-2.9-1.7-5.4-1.7
		C273.6,64.2,272.4,65.7,272.4,67z"/>
	<path class="st1" d="M297.4,67c0,4.1,12.1,2,12.1,9.5c0,4.4-4.1,6.4-8.7,6.4c-3.3,0-5.7-1-7.7-2.2c-0.3-0.2-0.4-0.4-0.3-0.8l1-2.1
		c0.1-0.3,0.4-0.4,0.8-0.3c1.8,1,3.4,1.9,6.4,1.9c2.7,0,4.3-0.8,4.3-2.6c0-4.8-11.9-2.2-11.9-9.7c0-3.5,2.9-6.4,8.3-6.4
		c3.5,0,5.6,1.1,7.1,1.9c0.2,0.1,0.4,0.4,0.3,0.8l-1,2.2c-0.1,0.3-0.4,0.4-0.8,0.2c-0.9-0.6-2.9-1.7-5.4-1.7
		C298.5,64.2,297.4,65.7,297.4,67z"/>
	<path class="st1" d="M318.5,75.8c-0.3,0-0.6-0.2-0.6-0.6V73c0-0.3,0.2-0.6,0.6-0.6h12.1c0.3,0,0.6,0.2,0.6,0.6v2.2
		c0,0.3-0.2,0.6-0.6,0.6H318.5z"/>
	<path class="st1" d="M359.5,76.7c0.3,0.1,0.5,0.4,0.3,0.8c-2,4-5.3,5.5-9.1,5.5c-5.8,0-11.2-4.2-11.2-11s5.4-11,11.2-11
		c3.8,0,7.1,1.5,9.1,5.5c0.2,0.4,0,0.6-0.3,0.8l-2.3,1.1c-0.3,0.1-0.6,0.1-0.8-0.3c-1.3-2.6-3.4-3.7-5.8-3.7c-4.1,0-6.9,3.1-6.9,7.6
		s2.8,7.6,6.9,7.6c2.3,0,4.4-1.1,5.8-3.7c0.2-0.4,0.5-0.4,0.8-0.3L359.5,76.7z"/>
	<path class="st1" d="M387.6,61.4c0.3,0,0.5,0.3,0.5,0.5v20.2c0,0.3-0.3,0.5-0.5,0.5h-3c-0.3,0-0.5-0.3-0.5-0.5v-8.6h-11.8v8.6
		c0,0.3-0.3,0.5-0.5,0.5h-3c-0.3,0-0.5-0.3-0.5-0.5V61.9c0-0.3,0.3-0.5,0.5-0.5h3c0.3,0,0.5,0.3,0.5,0.5v8.2h11.8v-8.2
		c0-0.3,0.3-0.5,0.5-0.5H387.6z"/>
	<path class="st1" d="M417.5,81.9c0.2,0.4,0,0.7-0.4,0.7h-3.4c-0.3,0-0.5-0.1-0.6-0.4l-1.8-4.3h-9.3l-2,4.3
		c-0.1,0.3-0.3,0.4-0.7,0.4H396c-0.4,0-0.6-0.3-0.5-0.7l9.6-20.4c0.1-0.3,0.3-0.4,0.7-0.4h1.6c0.3,0,0.5,0.1,0.7,0.4L417.5,81.9z
		 M403.2,74.8h6.6l-3.2-7.5L403.2,74.8z"/>
	<path class="st1" d="M425,61.9c0-0.3,0.3-0.5,0.5-0.5h3c0.3,0,0.5,0.3,0.5,0.5v20.2c0,0.3-0.3,0.5-0.5,0.5h-3
		c-0.3,0-0.5-0.3-0.5-0.5V61.9z"/>
	<path class="st1" d="M457.6,61.4c0.3,0,0.6,0.2,0.6,0.6v20.4c0,0.3-0.2,0.6-0.6,0.6h-0.4c-0.3,0-0.5,0-0.7-0.3L442,69v13.1
		c0,0.3-0.2,0.6-0.6,0.6h-2.9c-0.3,0-0.6-0.2-0.6-0.6V61.6c0-0.3,0.2-0.6,0.6-0.6h0.4c0.3,0,0.5,0,0.7,0.3l14.5,13.7V61.9
		c0-0.3,0.2-0.6,0.6-0.6H457.6z"/>
	<path class="st1" d="M199.6,116.2c0.3,0,0.5,0.2,0.5,0.5v2.3c0,0.3-0.2,0.5-0.5,0.5h-14h-1.8c-0.3,0-0.5-0.3-0.5-0.5V98.9
		c0-0.3,0.3-0.5,0.5-0.5h3h12.5c0.3,0,0.5,0.2,0.5,0.5v2.3c0,0.3-0.2,0.5-0.5,0.5h-12v5.4h10.6c0.3,0,0.5,0.2,0.5,0.5v2.2
		c0,0.3-0.2,0.5-0.5,0.5h-10.6v5.8H199.6z"/>
	<path class="st1" d="M228.3,113.7c0.3,0.1,0.5,0.4,0.3,0.8c-2,4-5.3,5.5-9.1,5.5c-5.8,0-11.2-4.2-11.2-11s5.4-11,11.2-11
		c3.8,0,7.1,1.5,9.1,5.5c0.2,0.4,0,0.6-0.3,0.8l-2.3,1.1c-0.3,0.1-0.6,0.1-0.8-0.3c-1.3-2.6-3.4-3.7-5.8-3.7c-4.1,0-6.9,3.1-6.9,7.6
		s2.8,7.6,6.9,7.6c2.3,0,4.4-1.1,5.8-3.7c0.2-0.4,0.5-0.4,0.8-0.3L228.3,113.7z"/>
	<path class="st1" d="M247.8,98c5.8,0,11.1,4.2,11.1,11s-5.4,11-11.1,11c-5.8,0-11.2-4.2-11.2-11S242,98,247.8,98z M247.8,116.6
		c4.1,0,6.9-3.1,6.9-7.6s-2.8-7.6-6.9-7.6c-4.1,0-6.9,3.1-6.9,7.6S243.7,116.6,247.8,116.6z"/>
	<path class="st1" d="M271.8,104c0,4.1,12.1,2,12.1,9.5c0,4.4-4.1,6.4-8.7,6.4c-3.3,0-5.7-1-7.7-2.2c-0.3-0.2-0.4-0.4-0.3-0.8l1-2.1
		c0.1-0.3,0.4-0.4,0.8-0.3c1.8,1,3.4,1.9,6.4,1.9c2.7,0,4.3-0.8,4.3-2.6c0-4.8-11.9-2.2-11.9-9.7c0-3.5,2.9-6.4,8.3-6.4
		c3.5,0,5.6,1.1,7.1,1.9c0.2,0.1,0.4,0.4,0.3,0.8l-1,2.2c-0.1,0.3-0.4,0.4-0.8,0.2c-0.9-0.6-2.9-1.7-5.4-1.7
		C272.9,101.2,271.8,102.7,271.8,104z"/>
	<path class="st1" d="M310.4,98.4c0.4,0,0.7,0.3,0.5,0.7l-8.2,13.3v6.8c0,0.3-0.3,0.5-0.5,0.5h-3c-0.3,0-0.5-0.3-0.5-0.5v-6.6
		l-8.2-13.4c-0.2-0.4,0-0.7,0.4-0.7h3.5c0.3,0,0.5,0.1,0.6,0.4l5.8,10l5.9-10c0.1-0.2,0.3-0.4,0.6-0.4H310.4z"/>
	<path class="st1" d="M322.1,104c0,4.1,12.1,2,12.1,9.5c0,4.4-4.1,6.4-8.7,6.4c-3.3,0-5.7-1-7.7-2.2c-0.3-0.2-0.4-0.4-0.3-0.8l1-2.1
		c0.1-0.3,0.4-0.4,0.8-0.3c1.8,1,3.4,1.9,6.4,1.9c2.7,0,4.3-0.8,4.3-2.6c0-4.8-11.9-2.2-11.9-9.7c0-3.5,2.9-6.4,8.3-6.4
		c3.5,0,5.6,1.1,7.1,1.9c0.2,0.1,0.4,0.4,0.3,0.8l-1,2.2c-0.1,0.3-0.4,0.4-0.8,0.2c-0.9-0.6-2.9-1.7-5.4-1.7
		C323.2,101.2,322.1,102.7,322.1,104z"/>
	<path class="st1" d="M359.8,98.4c0.3,0,0.5,0.3,0.5,0.5v2.3c0,0.3-0.3,0.5-0.5,0.5h-7v17.3c0,0.3-0.3,0.5-0.5,0.5h-3
		c-0.3,0-0.5-0.3-0.5-0.5v-17.3h-7c-0.3,0-0.5-0.3-0.5-0.5v-2.3c0-0.3,0.3-0.5,0.5-0.5h10.5H359.8z"/>
	<path class="st1" d="M385,116.2c0.3,0,0.5,0.2,0.5,0.5v2.3c0,0.3-0.2,0.5-0.5,0.5h-14h-1.8c-0.3,0-0.5-0.3-0.5-0.5V98.9
		c0-0.3,0.3-0.5,0.5-0.5h3h12.5c0.3,0,0.5,0.2,0.5,0.5v2.3c0,0.3-0.2,0.5-0.5,0.5h-12v5.4h10.6c0.3,0,0.5,0.2,0.5,0.5v2.2
		c0,0.3-0.2,0.5-0.5,0.5h-10.6v5.8H385z"/>
	<path class="st1" d="M415.1,98.4c0.2-0.2,0.4-0.4,0.7-0.4h1.1c0.3,0,0.6,0.2,0.6,0.6v20.4c0,0.3-0.2,0.6-0.6,0.6h-2.9
		c-0.3,0-0.6-0.2-0.6-0.6v-12.4l-7.2,9.9c-0.2,0.3-0.6,0.3-0.8,0l-7.2-9.9v12.4c0,0.3-0.2,0.6-0.6,0.6h-2.9c-0.3,0-0.6-0.2-0.6-0.6
		V98.6c0-0.3,0.2-0.6,0.6-0.6h1.1c0.3,0,0.5,0.1,0.7,0.4l9.3,12.2L415.1,98.4z"/>
	<path class="st1" d="M453.6,98.4c0.3,0,0.5,0.2,0.5,0.5v2.3c0,0.3-0.2,0.5-0.5,0.5H442v6.4h10.9c0.3,0,0.5,0.2,0.5,0.5v2.2
		c0,0.3-0.2,0.5-0.5,0.5H442v7.6c0,0.3-0.3,0.5-0.5,0.5h-3c-0.3,0-0.5-0.3-0.5-0.5V98.9c0-0.3,0.3-0.5,0.5-0.5h3H453.6z"/>
	<path class="st1" d="M481.5,98.4c0.3,0,0.5,0.3,0.5,0.5v11.6c0,6.4-4.3,9.4-9.8,9.4s-9.8-3-9.8-9.4V98.9c0-0.3,0.3-0.5,0.5-0.5h3
		c0.3,0,0.5,0.3,0.5,0.5v10.8c0,4.2,1.7,6.8,5.7,6.8c4.1,0,5.7-2.6,5.7-6.8V98.9c0-0.3,0.3-0.5,0.5-0.5H481.5z"/>
	<path class="st1" d="M510.6,98.4c0.3,0,0.6,0.2,0.6,0.6v20.4c0,0.3-0.2,0.6-0.6,0.6h-0.4c-0.3,0-0.5,0-0.7-0.3L495,106v13.1
		c0,0.3-0.2,0.6-0.6,0.6h-2.9c-0.3,0-0.6-0.2-0.6-0.6V98.6c0-0.3,0.2-0.6,0.6-0.6h0.4c0.3,0,0.5,0,0.7,0.3l14.5,13.7V98.9
		c0-0.3,0.2-0.6,0.6-0.6H510.6z"/>
	<path class="st1" d="M529.1,98.4c6,0,11.1,3.8,11.1,10.6s-5.1,10.6-11.1,10.6h-6.8h-1.7c-0.3,0-0.5-0.3-0.5-0.5V98.9
		c0-0.3,0.3-0.5,0.5-0.5h3H529.1z M528.7,116.2c4.4,0,7.2-2.8,7.2-7.2s-2.8-7.2-7.2-7.2h-4.7v14.5H528.7z"/>
</g>
</svg>
