<svg width="132" height="40" viewBox="0 0 132 40" fill="none" xmlns="http://www.w3.org/2000/svg">
<path d="M118.017 27.4938C118.017 29.1 118.955 30.3222 120.84 30.3222H124.016C125.9 30.3222 126.839 29.1 126.839 27.4938V16.8072C126.839 15.2011 125.9 13.9788 124.016 13.9788H120.84C118.955 13.9788 118.017 15.2011 118.017 16.8072V27.4938ZM113.551 17.1519C113.551 13.1327 116.343 9.99092 120.699 9.99092H124.157C128.521 9.99092 131.305 13.1327 131.305 17.1519V27.4233C131.305 31.4426 128.513 34.5843 124.157 34.5843H120.699C116.335 34.5843 113.551 31.4426 113.551 27.4233V17.1519ZM100.364 14.112V34.5921H104.83V14.112H111.181V9.99092H94.013V14.112H100.364ZM87.5292 27.533C87.5292 29.1391 86.52 30.3614 84.6662 30.3614H79.2619V23.7958H84.6662C86.5123 23.7958 87.5292 24.9867 87.5292 26.5928V27.533ZM84.5958 13.9397C86.2383 13.9397 87.0048 14.9895 87.0048 16.4233V17.3635C87.0048 18.7972 86.2383 19.8784 84.5958 19.8784H79.2619V13.9397H84.5958ZM88.1235 21.6647C90.5326 20.9675 91.5413 18.9382 91.5413 16.8072V16.2117C91.5413 12.5059 88.9914 9.99092 84.8071 9.99092H74.7959V34.5921H84.7366C89.1636 34.5921 92.0652 32.038 92.0652 28.199V27.2588C92.0652 24.8143 90.986 22.7851 88.1235 22.1192V21.6647ZM64.0491 22.1505L69.7355 14.9503C70.1577 14.3941 70.3299 13.9005 70.3299 13.2032V9.99092H65.7934V12.2238C65.7934 12.6469 65.6917 12.9603 65.4413 13.305L61.2179 19.1028L56.9945 13.2659C56.7519 12.9133 56.6424 12.5999 56.6424 12.1847V9.98309H52.1059V13.1953C52.1059 13.8926 52.2781 14.3862 52.7003 14.9425L58.3163 22.1427L52.5285 29.6562C52.1059 30.1812 51.9338 30.7061 51.9338 31.4034V34.5843H56.4702V32.3122C56.4702 31.8891 56.572 31.5758 56.8223 31.231L61.2179 25.3941L65.6135 31.1918C65.8561 31.5444 65.9656 31.8578 65.9656 32.273V34.5765H70.5016V31.3955C70.5016 30.6983 70.3299 30.2047 69.9073 29.6484L64.0491 22.1505ZM19.045 29.4525L25.3256 25.8172V22.1818H12.7645V25.8172L19.045 29.4525ZM19.045 34.3806L8.50965 28.2616V22.1818H4.25482V30.7453L19.045 39.3087L33.8353 30.7453V22.1818H29.5804V28.2616L19.045 34.3806ZM19.045 14.919L25.3256 18.5543V22.1897H29.5804V16.0707L19.045 9.99092L8.50965 16.0707V22.1897H12.7645V18.5543L19.045 14.919ZM0 22.1818H4.25482V13.6263L19.045 5.06284L33.8353 13.6263V22.1897H38.0901V11.174L19.045 0.134766L0 11.174V22.1818Z" fill="white"/>
</svg>
